%TF.GenerationSoftware,KiCad,Pcbnew,9.0.3*%
%TF.CreationDate,2025-12-28T20:16:34+01:00*%
%TF.ProjectId,Gleichrichter_Fernlicht,476c6569-6368-4726-9963-687465725f46,rev?*%
%TF.SameCoordinates,Original*%
%TF.FileFunction,Copper,L1,Top*%
%TF.FilePolarity,Positive*%
%FSLAX46Y46*%
G04 Gerber Fmt 4.6, Leading zero omitted, Abs format (unit mm)*
G04 Created by KiCad (PCBNEW 9.0.3) date 2025-12-28 20:16:34*
%MOMM*%
%LPD*%
G01*
G04 APERTURE LIST*
%TA.AperFunction,SMDPad,CuDef*%
%ADD10R,2.500000X2.500000*%
%TD*%
%TA.AperFunction,ViaPad*%
%ADD11C,0.800000*%
%TD*%
%TA.AperFunction,ViaPad*%
%ADD12C,1.000000*%
%TD*%
%TA.AperFunction,Conductor*%
%ADD13C,0.500000*%
%TD*%
%TA.AperFunction,Conductor*%
%ADD14C,0.250000*%
%TD*%
%TA.AperFunction,Conductor*%
%ADD15C,1.000000*%
%TD*%
G04 APERTURE END LIST*
D10*
%TO.P,TP8,1,1*%
%TO.N,DYN_2*%
X135128000Y-106680000D03*
%TD*%
%TO.P,TP7,1,1*%
%TO.N,DC+*%
X139700000Y-120650000D03*
%TD*%
%TO.P,TP6,1,1*%
%TO.N,DC-*%
X149352000Y-120650000D03*
%TD*%
%TO.P,TP5,1,1*%
%TO.N,DYN_1*%
X135128000Y-100076000D03*
%TD*%
D11*
%TO.N,DC+*%
X150622000Y-111760000D03*
X150622000Y-106172000D03*
%TO.N,DC-*%
X149860000Y-109220000D03*
X148844000Y-102870000D03*
D12*
%TO.N,DC+*%
X143891000Y-112649000D03*
%TO.N,DYN_1*%
X135128000Y-102870000D03*
X153924000Y-99822000D03*
%TO.N,DYN_2*%
X135128000Y-109728000D03*
%TO.N,DC-*%
X149352000Y-117348000D03*
%TO.N,DC+*%
X137160000Y-120650000D03*
%TD*%
D13*
%TO.N,DC+*%
X139700000Y-116840000D02*
X139700000Y-120650000D01*
X143891000Y-112649000D02*
X139700000Y-116840000D01*
D14*
X150622000Y-111760000D02*
X150622000Y-106172000D01*
%TO.N,DC-*%
X149860000Y-113792000D02*
X149352000Y-114300000D01*
X149860000Y-109220000D02*
X149860000Y-113792000D01*
X149860000Y-103886000D02*
X148844000Y-102870000D01*
X149860000Y-109220000D02*
X149860000Y-103886000D01*
D15*
%TO.N,DYN_1*%
X135128000Y-100076000D02*
X135128000Y-102870000D01*
X153924000Y-99822000D02*
X135382000Y-99822000D01*
X135382000Y-99822000D02*
X135128000Y-100076000D01*
%TO.N,DYN_2*%
X135128000Y-109728000D02*
X135128000Y-106680000D01*
%TO.N,DC+*%
X137160000Y-120650000D02*
X139700000Y-120650000D01*
%TO.N,DC-*%
X149352000Y-114300000D02*
X149352000Y-120650000D01*
%TD*%
%TA.AperFunction,Conductor*%
%TO.N,DC-*%
G36*
X157973291Y-96555600D02*
G01*
X157977616Y-96555716D01*
X158098685Y-96561111D01*
X158101012Y-96561239D01*
X158660882Y-96598042D01*
X158665302Y-96598413D01*
X158781160Y-96610295D01*
X158783540Y-96610563D01*
X159344997Y-96679557D01*
X159349638Y-96680216D01*
X159458993Y-96697847D01*
X159461303Y-96698242D01*
X160023640Y-96799932D01*
X160028251Y-96800858D01*
X160130012Y-96823348D01*
X160132075Y-96823824D01*
X160694270Y-96958741D01*
X160699093Y-96960000D01*
X160791852Y-96986189D01*
X160793716Y-96986731D01*
X161355040Y-97155559D01*
X161359792Y-97157095D01*
X161442233Y-97185594D01*
X161444123Y-97186264D01*
X162003472Y-97389676D01*
X162008351Y-97391566D01*
X162079051Y-97420668D01*
X162080779Y-97421394D01*
X162637673Y-97660411D01*
X162642559Y-97662633D01*
X162700020Y-97690259D01*
X162701578Y-97691021D01*
X163255508Y-97966879D01*
X163260364Y-97969433D01*
X163303000Y-97993048D01*
X163304379Y-97993823D01*
X163854905Y-98308066D01*
X163859707Y-98310952D01*
X163885857Y-98327474D01*
X163886946Y-98328170D01*
X164433996Y-98682924D01*
X164438708Y-98686136D01*
X164442180Y-98688620D01*
X164446185Y-98691487D01*
X164447241Y-98692252D01*
X164988321Y-99088370D01*
X164993937Y-99092730D01*
X165517445Y-99523540D01*
X165522817Y-99528222D01*
X165713232Y-99703911D01*
X166021096Y-99987967D01*
X166026200Y-99992951D01*
X166254729Y-100229115D01*
X166497660Y-100480161D01*
X166502469Y-100485422D01*
X166608705Y-100608436D01*
X166945579Y-100998515D01*
X166950087Y-101004044D01*
X167363468Y-101541423D01*
X167367657Y-101547199D01*
X167749948Y-102107096D01*
X167753802Y-102113099D01*
X168103786Y-102693730D01*
X168107295Y-102699942D01*
X168423866Y-103299472D01*
X168427017Y-103305873D01*
X168709138Y-103922341D01*
X168711922Y-103928910D01*
X168958701Y-104560359D01*
X168961109Y-104567074D01*
X169171753Y-105211480D01*
X169173777Y-105218322D01*
X169347613Y-105873631D01*
X169349246Y-105880576D01*
X169485710Y-106544650D01*
X169486948Y-106551676D01*
X169585608Y-107222428D01*
X169586446Y-107229513D01*
X169646985Y-107904779D01*
X169647420Y-107911900D01*
X169669641Y-108589486D01*
X169669673Y-108596620D01*
X169653509Y-109274392D01*
X169653137Y-109281517D01*
X169598636Y-109957275D01*
X169597862Y-109964367D01*
X169505199Y-110635982D01*
X169504024Y-110643019D01*
X169373500Y-111308289D01*
X169371929Y-111315249D01*
X169205774Y-111964974D01*
X169205426Y-111966302D01*
X169203083Y-111975065D01*
X169201468Y-111980596D01*
X169004494Y-112601930D01*
X169004035Y-112603347D01*
X168994358Y-112632664D01*
X168992469Y-112637984D01*
X168767070Y-113230288D01*
X168766483Y-113231801D01*
X168748523Y-113277227D01*
X168746385Y-113282307D01*
X168493969Y-113847150D01*
X168493244Y-113848743D01*
X168466394Y-113906654D01*
X168464025Y-113911490D01*
X168185863Y-114449877D01*
X168184987Y-114451541D01*
X168148894Y-114518914D01*
X168146317Y-114523493D01*
X167843650Y-115035926D01*
X167842614Y-115037648D01*
X167797063Y-115112033D01*
X167794298Y-115116349D01*
X167468254Y-115603153D01*
X167467048Y-115604921D01*
X167412075Y-115684057D01*
X167409145Y-115688101D01*
X167060796Y-116149414D01*
X167059411Y-116151214D01*
X166995214Y-116233117D01*
X166992140Y-116236887D01*
X166622581Y-116672625D01*
X166621012Y-116674441D01*
X166547821Y-116757479D01*
X166544624Y-116760971D01*
X166154923Y-117170962D01*
X166153161Y-117172779D01*
X166071378Y-117255430D01*
X166068080Y-117258643D01*
X165659345Y-117642587D01*
X165657388Y-117644387D01*
X165567449Y-117725367D01*
X165564070Y-117728302D01*
X165137393Y-118085872D01*
X165135235Y-118087640D01*
X165037711Y-118165759D01*
X165034273Y-118168417D01*
X164590736Y-118499252D01*
X164588377Y-118500970D01*
X164483894Y-118575201D01*
X164480416Y-118577585D01*
X164021152Y-118881274D01*
X164018589Y-118882925D01*
X163907805Y-118952389D01*
X163904308Y-118954503D01*
X163430447Y-119230630D01*
X163427680Y-119232196D01*
X163311368Y-119296098D01*
X163307872Y-119297948D01*
X162820540Y-119546102D01*
X162817572Y-119547565D01*
X162696519Y-119605255D01*
X162693040Y-119606848D01*
X162193404Y-119826598D01*
X162190237Y-119827940D01*
X162065331Y-119878855D01*
X162061889Y-119880199D01*
X161486792Y-120095178D01*
X161481821Y-120096919D01*
X160288955Y-120486840D01*
X160287194Y-120487401D01*
X159997906Y-120577287D01*
X159996458Y-120577728D01*
X158933151Y-120894164D01*
X158931214Y-120894724D01*
X158651124Y-120973220D01*
X158649827Y-120973575D01*
X157564629Y-121265253D01*
X157562514Y-121265802D01*
X157301964Y-121331009D01*
X157300822Y-121331290D01*
X156184690Y-121599573D01*
X156182396Y-121600101D01*
X155954886Y-121650312D01*
X155953901Y-121650525D01*
X154794888Y-121896609D01*
X154792417Y-121897108D01*
X154618306Y-121930450D01*
X154617480Y-121930606D01*
X153396340Y-122156017D01*
X153393690Y-122156477D01*
X153306656Y-122170629D01*
X153305993Y-122170735D01*
X152000197Y-122375919D01*
X151996869Y-122376396D01*
X151040786Y-122500593D01*
X150970656Y-122489533D01*
X150917639Y-122442314D01*
X150898567Y-122373927D01*
X150919495Y-122306085D01*
X150949047Y-122274774D01*
X150964904Y-122262903D01*
X151052444Y-122145965D01*
X151052444Y-122145964D01*
X151103494Y-122009093D01*
X151109999Y-121948597D01*
X151110000Y-121948585D01*
X151110000Y-120904000D01*
X149606000Y-120904000D01*
X149606000Y-122408001D01*
X149609880Y-122411881D01*
X149664783Y-122428002D01*
X149711276Y-122481658D01*
X149721380Y-122551932D01*
X149691886Y-122616512D01*
X149632160Y-122654896D01*
X149609554Y-122659339D01*
X149227765Y-122698610D01*
X149224417Y-122698909D01*
X147836091Y-122804377D01*
X147832737Y-122804587D01*
X146442061Y-122872984D01*
X146438701Y-122873104D01*
X145046736Y-122904379D01*
X145043375Y-122904410D01*
X143651034Y-122898543D01*
X143647673Y-122898484D01*
X142255982Y-122855477D01*
X142252624Y-122855328D01*
X141742994Y-122825955D01*
X141676137Y-122802067D01*
X141632808Y-122745825D01*
X141626765Y-122675086D01*
X141657680Y-122616558D01*
X141657071Y-122616061D01*
X141659547Y-122613024D01*
X141659925Y-122612309D01*
X141661103Y-122611113D01*
X141661109Y-122611109D01*
X141789698Y-122453407D01*
X141883909Y-122273049D01*
X141939886Y-122077418D01*
X141950500Y-121958037D01*
X141950500Y-121948597D01*
X147594000Y-121948597D01*
X147600505Y-122009093D01*
X147651555Y-122145964D01*
X147651555Y-122145965D01*
X147739095Y-122262904D01*
X147856034Y-122350444D01*
X147992906Y-122401494D01*
X148053402Y-122407999D01*
X148053415Y-122408000D01*
X149098000Y-122408000D01*
X149098000Y-120904000D01*
X147594000Y-120904000D01*
X147594000Y-121948597D01*
X141950500Y-121948597D01*
X141950499Y-120634269D01*
X141970501Y-120566149D01*
X142024157Y-120519656D01*
X142094431Y-120509552D01*
X142159011Y-120539045D01*
X142183186Y-120567234D01*
X142279265Y-120720143D01*
X142471882Y-120961677D01*
X142690322Y-121180117D01*
X142747849Y-121225993D01*
X142931857Y-121372735D01*
X143000820Y-121416067D01*
X143163282Y-121518149D01*
X143193435Y-121537095D01*
X143471771Y-121671135D01*
X143471787Y-121671140D01*
X143471788Y-121671141D01*
X143763357Y-121773166D01*
X143763360Y-121773166D01*
X143763364Y-121773168D01*
X143962131Y-121818535D01*
X144064543Y-121841910D01*
X144064544Y-121841910D01*
X144064548Y-121841911D01*
X144308565Y-121869405D01*
X144371534Y-121876500D01*
X144371535Y-121876500D01*
X144680466Y-121876500D01*
X144732717Y-121870612D01*
X144987452Y-121841911D01*
X145288636Y-121773168D01*
X145293978Y-121771299D01*
X145361534Y-121747659D01*
X145580229Y-121671135D01*
X145858565Y-121537095D01*
X146120143Y-121372735D01*
X146361674Y-121180120D01*
X146580120Y-120961674D01*
X146772735Y-120720143D01*
X146937095Y-120458565D01*
X147071135Y-120180229D01*
X147173168Y-119888636D01*
X147241911Y-119587452D01*
X147268507Y-119351402D01*
X147594000Y-119351402D01*
X147594000Y-120396000D01*
X149098000Y-120396000D01*
X149606000Y-120396000D01*
X151110000Y-120396000D01*
X151110000Y-119351414D01*
X151109999Y-119351402D01*
X151103494Y-119290906D01*
X151052444Y-119154035D01*
X151052444Y-119154034D01*
X150964904Y-119037095D01*
X150847965Y-118949555D01*
X150711093Y-118898505D01*
X150650597Y-118892000D01*
X149606000Y-118892000D01*
X149606000Y-120396000D01*
X149098000Y-120396000D01*
X149098000Y-118892000D01*
X148053402Y-118892000D01*
X147992906Y-118898505D01*
X147856035Y-118949555D01*
X147856034Y-118949555D01*
X147739095Y-119037095D01*
X147651555Y-119154034D01*
X147651555Y-119154035D01*
X147600505Y-119290906D01*
X147594000Y-119351402D01*
X147268507Y-119351402D01*
X147276500Y-119280465D01*
X147276500Y-118971535D01*
X147274023Y-118949555D01*
X147250925Y-118744548D01*
X147241911Y-118664548D01*
X147173168Y-118363364D01*
X147168649Y-118350450D01*
X147071141Y-118071788D01*
X147071140Y-118071787D01*
X147071135Y-118071771D01*
X146937095Y-117793435D01*
X146772735Y-117531857D01*
X146580120Y-117290326D01*
X146580117Y-117290322D01*
X146361677Y-117071882D01*
X146120143Y-116879265D01*
X145858569Y-116714907D01*
X145858560Y-116714902D01*
X145580238Y-116580869D01*
X145580233Y-116580867D01*
X145580229Y-116580865D01*
X145580223Y-116580862D01*
X145580211Y-116580858D01*
X145288642Y-116478833D01*
X144987456Y-116410089D01*
X144680466Y-116375500D01*
X144680465Y-116375500D01*
X144371535Y-116375500D01*
X144371534Y-116375500D01*
X144064543Y-116410089D01*
X143763357Y-116478833D01*
X143471788Y-116580858D01*
X143471761Y-116580869D01*
X143193439Y-116714902D01*
X143193430Y-116714907D01*
X142931856Y-116879265D01*
X142690322Y-117071882D01*
X142471882Y-117290322D01*
X142279265Y-117531856D01*
X142114907Y-117793430D01*
X142114902Y-117793439D01*
X141980869Y-118071761D01*
X141980858Y-118071788D01*
X141878833Y-118363357D01*
X141827192Y-118589611D01*
X141792533Y-118651573D01*
X141729876Y-118684960D01*
X141659116Y-118679173D01*
X141624727Y-118659226D01*
X141503407Y-118560302D01*
X141503405Y-118560301D01*
X141503404Y-118560300D01*
X141323051Y-118466092D01*
X141323050Y-118466091D01*
X141323049Y-118466091D01*
X141127418Y-118410114D01*
X141065340Y-118404594D01*
X140999259Y-118378638D01*
X140957701Y-118321076D01*
X140950500Y-118279090D01*
X140950500Y-117410163D01*
X140970502Y-117342042D01*
X140987400Y-117321073D01*
X144158231Y-114150241D01*
X144220541Y-114116217D01*
X144227599Y-114114891D01*
X144242368Y-114112553D01*
X144466992Y-114039568D01*
X144677433Y-113932343D01*
X144868510Y-113793517D01*
X145035517Y-113626510D01*
X145174343Y-113435433D01*
X145281568Y-113224992D01*
X145354553Y-113000368D01*
X145391500Y-112767092D01*
X145391500Y-112530908D01*
X145354553Y-112297632D01*
X145281568Y-112073008D01*
X145174343Y-111862567D01*
X145035517Y-111671490D01*
X145035515Y-111671487D01*
X144868512Y-111504484D01*
X144677436Y-111365659D01*
X144677435Y-111365658D01*
X144677433Y-111365657D01*
X144466992Y-111258432D01*
X144242368Y-111185447D01*
X144009092Y-111148500D01*
X143772908Y-111148500D01*
X143539632Y-111185447D01*
X143539629Y-111185447D01*
X143539628Y-111185448D01*
X143315008Y-111258432D01*
X143315006Y-111258433D01*
X143104563Y-111365659D01*
X142913487Y-111504484D01*
X142746484Y-111671487D01*
X142607659Y-111862563D01*
X142500433Y-112073006D01*
X142500432Y-112073008D01*
X142427447Y-112297631D01*
X142425109Y-112312390D01*
X142394693Y-112376542D01*
X142389756Y-112381768D01*
X138746173Y-116025351D01*
X138630478Y-116184591D01*
X138541114Y-116359978D01*
X138536071Y-116375500D01*
X138524833Y-116410089D01*
X138480291Y-116547174D01*
X138451115Y-116731392D01*
X138449500Y-116741586D01*
X138449500Y-118279090D01*
X138429498Y-118347211D01*
X138375842Y-118393704D01*
X138334658Y-118404595D01*
X138272588Y-118410113D01*
X138272585Y-118410113D01*
X138272582Y-118410114D01*
X138076951Y-118466091D01*
X138076948Y-118466092D01*
X137896595Y-118560300D01*
X137738891Y-118688891D01*
X137610300Y-118846595D01*
X137516090Y-119026950D01*
X137516090Y-119026952D01*
X137507161Y-119058160D01*
X137469192Y-119118151D01*
X137404817Y-119148090D01*
X137386022Y-119149500D01*
X137278092Y-119149500D01*
X137041908Y-119149500D01*
X136808632Y-119186447D01*
X136808629Y-119186447D01*
X136808628Y-119186448D01*
X136584008Y-119259432D01*
X136584006Y-119259433D01*
X136373563Y-119366659D01*
X136182487Y-119505484D01*
X136015484Y-119672487D01*
X135876659Y-119863563D01*
X135769433Y-120074006D01*
X135769432Y-120074008D01*
X135734919Y-120180229D01*
X135696447Y-120298632D01*
X135659500Y-120531908D01*
X135659500Y-120768092D01*
X135696447Y-121001368D01*
X135769432Y-121225992D01*
X135866280Y-121416067D01*
X135876659Y-121436436D01*
X136015484Y-121627512D01*
X136182487Y-121794515D01*
X136295330Y-121876500D01*
X136373567Y-121933343D01*
X136584008Y-122040568D01*
X136584010Y-122040568D01*
X136588419Y-122042815D01*
X136587775Y-122044078D01*
X136638077Y-122084598D01*
X136660512Y-122151957D01*
X136642968Y-122220752D01*
X136591016Y-122269141D01*
X136521150Y-122281761D01*
X136513986Y-122280783D01*
X135497427Y-122112259D01*
X135496102Y-122112032D01*
X135209791Y-122061422D01*
X135207808Y-122061056D01*
X134118658Y-121850502D01*
X134117174Y-121850206D01*
X133820254Y-121789099D01*
X133818446Y-121788713D01*
X132689698Y-121539095D01*
X132627503Y-121504855D01*
X132593693Y-121442426D01*
X132590905Y-121416067D01*
X132590905Y-96731432D01*
X132610907Y-96663311D01*
X132664563Y-96616818D01*
X132730429Y-96606160D01*
X133100254Y-96646096D01*
X133104124Y-96646577D01*
X133229375Y-96664168D01*
X133231002Y-96664407D01*
X133664968Y-96731432D01*
X133685027Y-96734530D01*
X133690690Y-96735537D01*
X134227765Y-96843796D01*
X134233331Y-96845051D01*
X134764877Y-96977710D01*
X134770411Y-96979226D01*
X135210579Y-97110695D01*
X135212139Y-97111172D01*
X135332899Y-97149051D01*
X135336575Y-97150268D01*
X135819593Y-97318912D01*
X135822218Y-97319862D01*
X136261364Y-97484514D01*
X136572909Y-97588072D01*
X136631241Y-97628539D01*
X136658436Y-97694120D01*
X136645857Y-97763994D01*
X136597499Y-97815975D01*
X136528715Y-97833559D01*
X136522005Y-97833143D01*
X136482933Y-97829669D01*
X136436037Y-97825500D01*
X136436033Y-97825500D01*
X133819972Y-97825500D01*
X133819962Y-97825501D01*
X133700588Y-97836113D01*
X133700585Y-97836113D01*
X133700582Y-97836114D01*
X133504951Y-97892091D01*
X133504948Y-97892092D01*
X133324595Y-97986300D01*
X133166891Y-98114891D01*
X133038300Y-98272595D01*
X132944092Y-98452948D01*
X132944091Y-98452950D01*
X132944091Y-98452951D01*
X132888114Y-98648582D01*
X132884300Y-98691487D01*
X132877500Y-98767965D01*
X132877500Y-101384027D01*
X132877501Y-101384036D01*
X132888114Y-101503418D01*
X132944091Y-101699049D01*
X133038302Y-101879407D01*
X133166891Y-102037109D01*
X133324593Y-102165698D01*
X133504951Y-102259909D01*
X133536161Y-102268839D01*
X133596151Y-102306809D01*
X133626090Y-102371184D01*
X133627500Y-102389978D01*
X133627500Y-102751908D01*
X133627500Y-102988092D01*
X133664447Y-103221368D01*
X133737432Y-103445992D01*
X133844657Y-103656433D01*
X133844659Y-103656436D01*
X133983484Y-103847512D01*
X134150487Y-104014515D01*
X134150490Y-104014517D01*
X134341567Y-104153343D01*
X134415931Y-104191233D01*
X134467547Y-104239981D01*
X134484613Y-104308896D01*
X134461713Y-104376097D01*
X134406115Y-104420250D01*
X134358729Y-104429500D01*
X133819972Y-104429500D01*
X133819962Y-104429501D01*
X133700588Y-104440113D01*
X133700585Y-104440113D01*
X133700582Y-104440114D01*
X133504951Y-104496091D01*
X133504948Y-104496092D01*
X133324595Y-104590300D01*
X133166891Y-104718891D01*
X133038300Y-104876595D01*
X132944092Y-105056948D01*
X132944091Y-105056950D01*
X132944091Y-105056951D01*
X132888114Y-105252582D01*
X132887488Y-105259629D01*
X132877500Y-105371965D01*
X132877500Y-107988027D01*
X132877501Y-107988034D01*
X132877501Y-107988036D01*
X132888114Y-108107418D01*
X132944091Y-108303049D01*
X133038302Y-108483407D01*
X133166891Y-108641109D01*
X133324593Y-108769698D01*
X133504951Y-108863909D01*
X133536161Y-108872839D01*
X133596151Y-108910809D01*
X133626090Y-108975184D01*
X133627500Y-108993978D01*
X133627500Y-109609908D01*
X133627500Y-109846092D01*
X133664447Y-110079368D01*
X133737432Y-110303992D01*
X133737433Y-110303993D01*
X133844659Y-110514436D01*
X133983484Y-110705512D01*
X134150487Y-110872515D01*
X134224714Y-110926444D01*
X134341567Y-111011343D01*
X134552008Y-111118568D01*
X134776632Y-111191553D01*
X135009908Y-111228500D01*
X135009911Y-111228500D01*
X135246089Y-111228500D01*
X135246092Y-111228500D01*
X135479368Y-111191553D01*
X135703992Y-111118568D01*
X135914433Y-111011343D01*
X136105510Y-110872517D01*
X136272517Y-110705510D01*
X136411343Y-110514433D01*
X136518568Y-110303992D01*
X136591553Y-110079368D01*
X136628500Y-109846092D01*
X136628500Y-109609908D01*
X136628500Y-108993978D01*
X136648502Y-108925857D01*
X136702158Y-108879364D01*
X136719839Y-108872839D01*
X136751049Y-108863909D01*
X136931407Y-108769698D01*
X137089109Y-108641109D01*
X137217698Y-108483407D01*
X137311909Y-108303049D01*
X137367886Y-108107418D01*
X137378500Y-107988037D01*
X137378499Y-106061778D01*
X149221500Y-106061778D01*
X149221500Y-106282222D01*
X149255985Y-106499951D01*
X149255986Y-106499954D01*
X149271646Y-106548153D01*
X149324105Y-106709606D01*
X149424185Y-106906022D01*
X149472437Y-106972435D01*
X149496294Y-107039300D01*
X149496500Y-107046494D01*
X149496500Y-110885505D01*
X149476498Y-110953626D01*
X149472436Y-110959566D01*
X149424187Y-111025974D01*
X149324106Y-111222392D01*
X149324103Y-111222398D01*
X149277556Y-111365659D01*
X149255985Y-111432049D01*
X149221500Y-111649778D01*
X149221500Y-111870222D01*
X149255985Y-112087951D01*
X149324105Y-112297606D01*
X149424185Y-112494022D01*
X149553758Y-112672365D01*
X149553760Y-112672367D01*
X149553762Y-112672370D01*
X149709629Y-112828237D01*
X149709632Y-112828239D01*
X149709635Y-112828242D01*
X149887978Y-112957815D01*
X150084394Y-113057895D01*
X150294049Y-113126015D01*
X150511778Y-113160500D01*
X150511781Y-113160500D01*
X150732219Y-113160500D01*
X150732222Y-113160500D01*
X150949951Y-113126015D01*
X151159606Y-113057895D01*
X151356022Y-112957815D01*
X151534365Y-112828242D01*
X151690242Y-112672365D01*
X151819815Y-112494022D01*
X151919895Y-112297606D01*
X151988015Y-112087951D01*
X152022500Y-111870222D01*
X152022500Y-111649778D01*
X151988015Y-111432049D01*
X151919895Y-111222394D01*
X151819815Y-111025978D01*
X151771563Y-110959565D01*
X151747705Y-110892698D01*
X151747500Y-110885505D01*
X151747500Y-107046494D01*
X151767502Y-106978373D01*
X151771543Y-106972461D01*
X151819815Y-106906022D01*
X151919895Y-106709606D01*
X151988015Y-106499951D01*
X152022500Y-106282222D01*
X152022500Y-106061778D01*
X151988015Y-105844049D01*
X151919895Y-105634394D01*
X151819815Y-105437978D01*
X151690242Y-105259635D01*
X151690239Y-105259632D01*
X151690237Y-105259629D01*
X151534370Y-105103762D01*
X151534367Y-105103760D01*
X151534365Y-105103758D01*
X151356022Y-104974185D01*
X151159606Y-104874105D01*
X151159603Y-104874104D01*
X151159601Y-104874103D01*
X150949954Y-104805986D01*
X150949951Y-104805985D01*
X150732222Y-104771500D01*
X150511778Y-104771500D01*
X150294049Y-104805985D01*
X150294046Y-104805985D01*
X150294045Y-104805986D01*
X150084398Y-104874103D01*
X150084392Y-104874106D01*
X149887974Y-104974187D01*
X149709632Y-105103760D01*
X149709629Y-105103762D01*
X149553762Y-105259629D01*
X149553760Y-105259632D01*
X149424187Y-105437974D01*
X149324106Y-105634392D01*
X149324103Y-105634398D01*
X149255986Y-105844045D01*
X149255985Y-105844049D01*
X149221500Y-106061778D01*
X137378499Y-106061778D01*
X137378499Y-105371964D01*
X137367886Y-105252582D01*
X137311909Y-105056951D01*
X137217698Y-104876593D01*
X137089109Y-104718891D01*
X136931407Y-104590302D01*
X136931405Y-104590301D01*
X136931404Y-104590300D01*
X136751051Y-104496092D01*
X136751050Y-104496091D01*
X136751049Y-104496091D01*
X136555418Y-104440114D01*
X136436037Y-104429500D01*
X136436034Y-104429500D01*
X135897271Y-104429500D01*
X135829150Y-104409498D01*
X135782657Y-104355842D01*
X135772553Y-104285568D01*
X135802047Y-104220988D01*
X135840067Y-104191233D01*
X135914433Y-104153343D01*
X136105510Y-104014517D01*
X136272517Y-103847510D01*
X136411343Y-103656433D01*
X136518568Y-103445992D01*
X136591553Y-103221368D01*
X136628500Y-102988092D01*
X136628500Y-102751908D01*
X136628500Y-102389978D01*
X136648502Y-102321857D01*
X136702158Y-102275364D01*
X136719839Y-102268839D01*
X136751049Y-102259909D01*
X136931407Y-102165698D01*
X137089109Y-102037109D01*
X137217698Y-101879407D01*
X137311909Y-101699049D01*
X137367886Y-101503418D01*
X137373760Y-101437339D01*
X137399716Y-101371260D01*
X137457278Y-101329701D01*
X137499265Y-101322500D01*
X154042089Y-101322500D01*
X154042092Y-101322500D01*
X154275368Y-101285553D01*
X154499992Y-101212568D01*
X154710433Y-101105343D01*
X154901510Y-100966517D01*
X155068517Y-100799510D01*
X155207343Y-100608433D01*
X155314568Y-100397992D01*
X155387553Y-100173368D01*
X155424500Y-99940092D01*
X155424500Y-99703908D01*
X155387553Y-99470632D01*
X155314568Y-99246008D01*
X155207343Y-99035567D01*
X155159709Y-98970005D01*
X155068515Y-98844487D01*
X154901512Y-98677484D01*
X154710436Y-98538659D01*
X154710435Y-98538658D01*
X154710433Y-98538657D01*
X154499992Y-98431432D01*
X154275368Y-98358447D01*
X154042092Y-98321500D01*
X154042089Y-98321500D01*
X150996054Y-98321500D01*
X150927933Y-98301498D01*
X150881440Y-98247842D01*
X150871336Y-98177568D01*
X150900830Y-98112988D01*
X150960556Y-98074604D01*
X150965443Y-98073275D01*
X150984374Y-98068533D01*
X151081174Y-98044290D01*
X151694411Y-97865853D01*
X151984765Y-97781368D01*
X151984769Y-97781366D01*
X151984785Y-97781362D01*
X152877828Y-97484514D01*
X153316853Y-97319907D01*
X153320131Y-97318730D01*
X153901588Y-97119069D01*
X153904985Y-97117958D01*
X154033919Y-97077873D01*
X154037011Y-97076958D01*
X154562673Y-96929132D01*
X154566253Y-96928184D01*
X154696490Y-96895793D01*
X154699536Y-96895078D01*
X155233678Y-96777031D01*
X155237480Y-96776253D01*
X155368049Y-96751669D01*
X155370865Y-96751175D01*
X155912481Y-96663281D01*
X155916437Y-96662705D01*
X156046151Y-96645952D01*
X156049094Y-96645607D01*
X156596883Y-96588294D01*
X156600943Y-96587938D01*
X156728842Y-96578870D01*
X156731622Y-96578705D01*
X157284496Y-96552357D01*
X157288739Y-96552228D01*
X157413807Y-96550586D01*
X157416397Y-96550581D01*
X157973291Y-96555600D01*
G37*
%TD.AperFunction*%
%TD*%
M02*
