%TF.GenerationSoftware,KiCad,Pcbnew,(6.0.1)*%
%TF.CreationDate,2022-02-14T16:30:39+01:00*%
%TF.ProjectId,Gleichrichter_Fernlicht,476c6569-6368-4726-9963-687465725f46,rev?*%
%TF.SameCoordinates,Original*%
%TF.FileFunction,Copper,L2,Bot*%
%TF.FilePolarity,Positive*%
%FSLAX46Y46*%
G04 Gerber Fmt 4.6, Leading zero omitted, Abs format (unit mm)*
G04 Created by KiCad (PCBNEW (6.0.1)) date 2022-02-14 16:30:39*
%MOMM*%
%LPD*%
G01*
G04 APERTURE LIST*
G04 Aperture macros list*
%AMRoundRect*
0 Rectangle with rounded corners*
0 $1 Rounding radius*
0 $2 $3 $4 $5 $6 $7 $8 $9 X,Y pos of 4 corners*
0 Add a 4 corners polygon primitive as box body*
4,1,4,$2,$3,$4,$5,$6,$7,$8,$9,$2,$3,0*
0 Add four circle primitives for the rounded corners*
1,1,$1+$1,$2,$3*
1,1,$1+$1,$4,$5*
1,1,$1+$1,$6,$7*
1,1,$1+$1,$8,$9*
0 Add four rect primitives between the rounded corners*
20,1,$1+$1,$2,$3,$4,$5,0*
20,1,$1+$1,$4,$5,$6,$7,0*
20,1,$1+$1,$6,$7,$8,$9,0*
20,1,$1+$1,$8,$9,$2,$3,0*%
G04 Aperture macros list end*
%TA.AperFunction,SMDPad,CuDef*%
%ADD10RoundRect,0.250000X1.950000X1.000000X-1.950000X1.000000X-1.950000X-1.000000X1.950000X-1.000000X0*%
%TD*%
%TA.AperFunction,SMDPad,CuDef*%
%ADD11R,1.900000X0.800000*%
%TD*%
%TA.AperFunction,SMDPad,CuDef*%
%ADD12R,2.500000X2.500000*%
%TD*%
%TA.AperFunction,SMDPad,CuDef*%
%ADD13R,1.700000X3.300000*%
%TD*%
%TA.AperFunction,ViaPad*%
%ADD14C,1.000000*%
%TD*%
%TA.AperFunction,Conductor*%
%ADD15C,0.500000*%
%TD*%
%TA.AperFunction,Conductor*%
%ADD16C,1.000000*%
%TD*%
%TA.AperFunction,Conductor*%
%ADD17C,0.250000*%
%TD*%
G04 APERTURE END LIST*
D10*
%TO.P,C1,1*%
%TO.N,Net-(C1-Pad1)*%
X162442000Y-103124000D03*
%TO.P,C1,2*%
%TO.N,DYN_1*%
X154042000Y-103124000D03*
%TD*%
D11*
%TO.P,Q4,1,G*%
%TO.N,Net-(C2-Pad2)*%
X147804000Y-100650000D03*
%TO.P,Q4,2,D*%
%TO.N,DYN_2*%
X147804000Y-102550000D03*
%TO.P,Q4,3,S*%
%TO.N,DC+*%
X144804000Y-101600000D03*
%TD*%
D12*
%TO.P,TP2,1,1*%
%TO.N,DC-*%
X149352000Y-120650000D03*
%TD*%
D11*
%TO.P,Q2,1,G*%
%TO.N,DYN_2*%
X147804000Y-113350000D03*
%TO.P,Q2,2,D*%
%TO.N,Net-(C2-Pad2)*%
X147804000Y-115250000D03*
%TO.P,Q2,3,S*%
%TO.N,DC+*%
X144804000Y-114300000D03*
%TD*%
D10*
%TO.P,C2,1*%
%TO.N,Net-(C1-Pad1)*%
X161680000Y-114300000D03*
%TO.P,C2,2*%
%TO.N,Net-(C2-Pad2)*%
X153280000Y-114300000D03*
%TD*%
D12*
%TO.P,TP4,1,1*%
%TO.N,DYN_2*%
X135128000Y-106680000D03*
%TD*%
%TO.P,TP3,1,1*%
%TO.N,DC+*%
X139700000Y-120650000D03*
%TD*%
D11*
%TO.P,Q1,1,G*%
%TO.N,DYN_2*%
X147804000Y-104714000D03*
%TO.P,Q1,2,D*%
%TO.N,Net-(C2-Pad2)*%
X147804000Y-106614000D03*
%TO.P,Q1,3,S*%
%TO.N,DC-*%
X144804000Y-105664000D03*
%TD*%
D13*
%TO.P,D2,1,K*%
%TO.N,DYN_2*%
X140208000Y-101136000D03*
%TO.P,D2,2,A*%
%TO.N,Net-(D1-Pad2)*%
X140208000Y-106636000D03*
%TD*%
D11*
%TO.P,Q3,1,G*%
%TO.N,Net-(C2-Pad2)*%
X147804000Y-109286000D03*
%TO.P,Q3,2,D*%
%TO.N,DYN_2*%
X147804000Y-111186000D03*
%TO.P,Q3,3,S*%
%TO.N,DC-*%
X144804000Y-110236000D03*
%TD*%
D12*
%TO.P,TP1,1,1*%
%TO.N,DYN_1*%
X135128000Y-100076000D03*
%TD*%
D13*
%TO.P,D1,1,K*%
%TO.N,Net-(C2-Pad2)*%
X140208000Y-116288000D03*
%TO.P,D1,2,A*%
%TO.N,Net-(D1-Pad2)*%
X140208000Y-110788000D03*
%TD*%
D14*
%TO.N,DYN_1*%
X135128000Y-102870000D03*
X153924000Y-99822000D03*
%TO.N,Net-(C2-Pad2)*%
X149836000Y-107720000D03*
X153280000Y-110880000D03*
X150876000Y-101092000D03*
%TO.N,DYN_2*%
X135128000Y-109728000D03*
%TO.N,DC-*%
X144804000Y-107950000D03*
X149352000Y-117348000D03*
%TO.N,DC+*%
X142240000Y-101600000D03*
X142240000Y-114300000D03*
X137160000Y-120650000D03*
%TD*%
D15*
%TO.N,Net-(C2-Pad2)*%
X142544800Y-115824000D02*
X140672000Y-115824000D01*
X143118800Y-115250000D02*
X142544800Y-115824000D01*
X147804000Y-115250000D02*
X143118800Y-115250000D01*
D16*
%TO.N,DYN_2*%
X140208000Y-101600000D02*
X140208000Y-101136000D01*
X135128000Y-106680000D02*
X140208000Y-101600000D01*
%TO.N,Net-(C1-Pad1)*%
X162442000Y-103124000D02*
X162442000Y-113538000D01*
X162442000Y-113538000D02*
X161680000Y-114300000D01*
D17*
%TO.N,DYN_1*%
X154042000Y-103124000D02*
X153924000Y-103006000D01*
D16*
X153924000Y-103006000D02*
X153924000Y-99822000D01*
X135128000Y-102870000D02*
X135128000Y-100076000D01*
D15*
%TO.N,Net-(C2-Pad2)*%
X150302000Y-115250000D02*
X152330000Y-115250000D01*
X147804000Y-115250000D02*
X150302000Y-115250000D01*
X147804000Y-107720000D02*
X147804000Y-106614000D01*
X150876000Y-101092000D02*
X150434000Y-100650000D01*
X147804000Y-109286000D02*
X147804000Y-107720000D01*
D17*
X152330000Y-115250000D02*
X153280000Y-114300000D01*
X140672000Y-115824000D02*
X140208000Y-116288000D01*
D15*
X150434000Y-100650000D02*
X149860000Y-100650000D01*
X147804000Y-107720000D02*
X149836000Y-107720000D01*
X147804000Y-100650000D02*
X149926000Y-100650000D01*
X153280000Y-114300000D02*
X153280000Y-110880000D01*
%TO.N,Net-(D1-Pad2)*%
X140208000Y-106636000D02*
X140208000Y-110788000D01*
%TO.N,DYN_2*%
X147804000Y-103656000D02*
X147804000Y-102550000D01*
X151384000Y-106680000D02*
X149418000Y-104714000D01*
X151384000Y-109220000D02*
X151384000Y-106680000D01*
X147804000Y-113350000D02*
X147804000Y-111186000D01*
D16*
X135128000Y-106680000D02*
X135128000Y-109728000D01*
D15*
X141756000Y-103656000D02*
X147804000Y-103656000D01*
X149418000Y-104714000D02*
X147804000Y-104714000D01*
D17*
X140208000Y-101136000D02*
X140208000Y-102108000D01*
D15*
X149418000Y-111186000D02*
X151384000Y-109220000D01*
X140208000Y-102108000D02*
X141756000Y-103656000D01*
X147804000Y-111186000D02*
X149418000Y-111186000D01*
X147804000Y-104714000D02*
X147804000Y-103656000D01*
%TO.N,DC-*%
X144804000Y-110236000D02*
X144804000Y-105664000D01*
X149352000Y-120650000D02*
X149352000Y-117348000D01*
D17*
%TO.N,DC+*%
X139700000Y-120650000D02*
X137160000Y-120650000D01*
D15*
X144804000Y-114300000D02*
X142240000Y-114300000D01*
X144804000Y-101600000D02*
X142240000Y-101600000D01*
%TD*%
%TA.AperFunction,Conductor*%
%TO.N,DC-*%
G36*
X157810567Y-97554490D02*
G01*
X158143714Y-97562035D01*
X158151080Y-97562418D01*
X158558435Y-97595639D01*
X158793337Y-97614796D01*
X158800690Y-97615614D01*
X159438733Y-97705592D01*
X159446025Y-97706839D01*
X160077724Y-97834118D01*
X160084930Y-97835792D01*
X160708072Y-97999929D01*
X160715129Y-98002011D01*
X161066072Y-98116863D01*
X161327549Y-98202436D01*
X161334510Y-98204942D01*
X161934116Y-98440967D01*
X161940918Y-98443878D01*
X162165591Y-98547935D01*
X162485463Y-98696083D01*
X162525627Y-98714685D01*
X162532240Y-98717987D01*
X163100059Y-99022652D01*
X163106458Y-99026331D01*
X163251113Y-99115256D01*
X163655406Y-99363792D01*
X163661593Y-99367850D01*
X164189794Y-99736953D01*
X164195731Y-99741367D01*
X164355758Y-99867796D01*
X164630302Y-100084698D01*
X164701348Y-100140828D01*
X164707011Y-100145579D01*
X165188326Y-100574042D01*
X165193684Y-100579100D01*
X165647336Y-101033386D01*
X165649016Y-101035068D01*
X165654083Y-101040448D01*
X165956400Y-101381014D01*
X166081871Y-101522360D01*
X166086612Y-101528028D01*
X166367466Y-101884540D01*
X166485373Y-102034209D01*
X166489778Y-102040151D01*
X166653635Y-102275336D01*
X166858140Y-102568864D01*
X166862187Y-102575053D01*
X167197436Y-103122114D01*
X167198879Y-103124469D01*
X167202557Y-103130886D01*
X167407496Y-103514124D01*
X167506423Y-103699118D01*
X167509719Y-103705742D01*
X167779712Y-104290836D01*
X167782613Y-104297642D01*
X168017793Y-104897557D01*
X168020289Y-104904518D01*
X168028385Y-104929375D01*
X168219857Y-105517216D01*
X168221941Y-105524315D01*
X168241005Y-105597105D01*
X168376776Y-106115490D01*
X168385206Y-106147678D01*
X168386867Y-106154878D01*
X168469127Y-106566105D01*
X168513260Y-106786731D01*
X168514498Y-106794026D01*
X168603589Y-107432224D01*
X168604396Y-107439578D01*
X168655873Y-108081877D01*
X168656248Y-108089266D01*
X168669938Y-108733508D01*
X168669878Y-108740906D01*
X168645733Y-109384845D01*
X168645238Y-109392227D01*
X168631726Y-109532243D01*
X168583893Y-110027900D01*
X168583343Y-110033597D01*
X168582418Y-110040928D01*
X168483303Y-110675532D01*
X168482978Y-110677611D01*
X168481625Y-110684870D01*
X168354668Y-111269999D01*
X168344991Y-111314599D01*
X168343212Y-111321776D01*
X168311791Y-111434264D01*
X168169850Y-111942409D01*
X168167651Y-111949473D01*
X167958165Y-112558848D01*
X167955555Y-112565771D01*
X167710670Y-113161787D01*
X167707659Y-113168545D01*
X167428206Y-113749176D01*
X167424803Y-113755746D01*
X167111749Y-114318980D01*
X167107966Y-114325338D01*
X166762410Y-114869201D01*
X166758261Y-114875327D01*
X166467390Y-115278697D01*
X166381359Y-115398001D01*
X166376862Y-115403866D01*
X166296204Y-115502902D01*
X165969938Y-115903508D01*
X165965110Y-115909093D01*
X165529555Y-116383998D01*
X165524413Y-116389285D01*
X165061732Y-116837810D01*
X165056271Y-116842801D01*
X164568076Y-117263385D01*
X164562331Y-117268047D01*
X164050315Y-117659235D01*
X164044311Y-117663550D01*
X163632061Y-117941779D01*
X163510175Y-118024040D01*
X163503923Y-118027997D01*
X162949573Y-118356502D01*
X162943100Y-118360085D01*
X162370425Y-118655486D01*
X162363754Y-118658682D01*
X161774711Y-118919970D01*
X161767899Y-118922756D01*
X161211271Y-119131494D01*
X161194225Y-119136547D01*
X161172946Y-119141251D01*
X161172882Y-119141279D01*
X161172810Y-119141295D01*
X161148519Y-119151945D01*
X161131941Y-119159213D01*
X161120496Y-119163580D01*
X159861527Y-119575109D01*
X159858318Y-119576111D01*
X158549343Y-119965657D01*
X158546109Y-119966572D01*
X157227299Y-120321039D01*
X157224042Y-120321869D01*
X155896112Y-120641062D01*
X155892833Y-120641803D01*
X155400366Y-120746364D01*
X154556987Y-120925432D01*
X154553722Y-120926081D01*
X153210667Y-121173997D01*
X153207400Y-121174555D01*
X152283807Y-121319681D01*
X151858233Y-121386552D01*
X151854905Y-121387029D01*
X151252231Y-121465318D01*
X151182102Y-121454258D01*
X151129084Y-121407039D01*
X151110000Y-121340368D01*
X151110000Y-120922115D01*
X151105525Y-120906876D01*
X151104135Y-120905671D01*
X151096452Y-120904000D01*
X149224000Y-120904000D01*
X149155879Y-120883998D01*
X149109386Y-120830342D01*
X149098000Y-120778000D01*
X149098000Y-120377885D01*
X149606000Y-120377885D01*
X149610475Y-120393124D01*
X149611865Y-120394329D01*
X149619548Y-120396000D01*
X151091884Y-120396000D01*
X151107123Y-120391525D01*
X151108328Y-120390135D01*
X151109999Y-120382452D01*
X151109999Y-119355331D01*
X151109629Y-119348510D01*
X151104105Y-119297648D01*
X151100479Y-119282396D01*
X151055324Y-119161946D01*
X151046786Y-119146351D01*
X150970285Y-119044276D01*
X150957724Y-119031715D01*
X150855649Y-118955214D01*
X150840054Y-118946676D01*
X150719606Y-118901522D01*
X150704351Y-118897895D01*
X150653486Y-118892369D01*
X150646672Y-118892000D01*
X149624115Y-118892000D01*
X149608876Y-118896475D01*
X149607671Y-118897865D01*
X149606000Y-118905548D01*
X149606000Y-120377885D01*
X149098000Y-120377885D01*
X149098000Y-118910116D01*
X149093525Y-118894877D01*
X149092135Y-118893672D01*
X149084452Y-118892001D01*
X148135319Y-118892001D01*
X148067198Y-118871999D01*
X148020705Y-118818343D01*
X148009716Y-118775997D01*
X148000939Y-118665710D01*
X148000674Y-118662379D01*
X147982737Y-118566993D01*
X147932352Y-118299055D01*
X147932350Y-118299047D01*
X147931734Y-118295771D01*
X147824227Y-117938565D01*
X147679371Y-117594805D01*
X147677752Y-117591878D01*
X147677748Y-117591870D01*
X147500429Y-117271320D01*
X147500425Y-117271314D01*
X147498805Y-117268385D01*
X147496878Y-117265638D01*
X147286511Y-116965758D01*
X147286509Y-116965755D01*
X147284576Y-116963000D01*
X147194049Y-116859410D01*
X147164286Y-116794956D01*
X147174094Y-116724640D01*
X147220361Y-116670789D01*
X147288927Y-116650500D01*
X148811816Y-116650500D01*
X148814603Y-116650251D01*
X148814609Y-116650251D01*
X148900455Y-116642589D01*
X148932087Y-116639766D01*
X149127470Y-116583741D01*
X149259269Y-116514838D01*
X149317644Y-116500500D01*
X150961037Y-116500500D01*
X150992372Y-116504459D01*
X151127098Y-116539051D01*
X151191232Y-116544267D01*
X151265311Y-116550293D01*
X151265323Y-116550293D01*
X151267862Y-116550500D01*
X155292138Y-116550500D01*
X155294677Y-116550293D01*
X155294689Y-116550293D01*
X155368768Y-116544267D01*
X155432902Y-116539051D01*
X155649113Y-116483537D01*
X155654216Y-116481201D01*
X155654218Y-116481200D01*
X155725915Y-116448374D01*
X155852075Y-116390614D01*
X155861619Y-116383981D01*
X156030767Y-116266420D01*
X156030769Y-116266418D01*
X156035375Y-116263217D01*
X156193217Y-116105375D01*
X156320614Y-115922075D01*
X156413537Y-115719113D01*
X156469051Y-115502902D01*
X156477106Y-115403872D01*
X156480293Y-115364689D01*
X156480293Y-115364677D01*
X156480500Y-115362138D01*
X158479500Y-115362138D01*
X158479707Y-115364677D01*
X158479707Y-115364689D01*
X158482894Y-115403872D01*
X158490949Y-115502902D01*
X158546463Y-115719113D01*
X158639386Y-115922075D01*
X158766783Y-116105375D01*
X158924625Y-116263217D01*
X158929231Y-116266418D01*
X158929233Y-116266420D01*
X159098381Y-116383981D01*
X159107925Y-116390614D01*
X159234085Y-116448374D01*
X159305782Y-116481200D01*
X159305784Y-116481201D01*
X159310887Y-116483537D01*
X159527098Y-116539051D01*
X159591232Y-116544267D01*
X159665311Y-116550293D01*
X159665323Y-116550293D01*
X159667862Y-116550500D01*
X163692138Y-116550500D01*
X163694677Y-116550293D01*
X163694689Y-116550293D01*
X163768768Y-116544267D01*
X163832902Y-116539051D01*
X164049113Y-116483537D01*
X164054216Y-116481201D01*
X164054218Y-116481200D01*
X164125915Y-116448374D01*
X164252075Y-116390614D01*
X164261619Y-116383981D01*
X164430767Y-116266420D01*
X164430769Y-116266418D01*
X164435375Y-116263217D01*
X164593217Y-116105375D01*
X164720614Y-115922075D01*
X164813537Y-115719113D01*
X164869051Y-115502902D01*
X164877106Y-115403872D01*
X164880293Y-115364689D01*
X164880293Y-115364677D01*
X164880500Y-115362138D01*
X164880500Y-113237862D01*
X164869051Y-113097098D01*
X164813537Y-112880887D01*
X164784346Y-112817127D01*
X164761006Y-112766149D01*
X164720614Y-112677925D01*
X164681644Y-112621854D01*
X164596420Y-112499233D01*
X164596418Y-112499231D01*
X164593217Y-112494625D01*
X164435375Y-112336783D01*
X164430769Y-112333582D01*
X164430767Y-112333580D01*
X164256681Y-112212587D01*
X164256679Y-112212586D01*
X164252075Y-112209386D01*
X164107853Y-112143356D01*
X164054218Y-112118800D01*
X164054216Y-112118799D01*
X164049113Y-112116463D01*
X164037160Y-112113394D01*
X163976157Y-112077079D01*
X163944470Y-112013546D01*
X163942500Y-111991354D01*
X163942500Y-105500500D01*
X163962502Y-105432379D01*
X164016158Y-105385886D01*
X164068500Y-105374500D01*
X164454138Y-105374500D01*
X164456677Y-105374293D01*
X164456689Y-105374293D01*
X164530768Y-105368267D01*
X164594902Y-105363051D01*
X164811113Y-105307537D01*
X164816216Y-105305201D01*
X164816218Y-105305200D01*
X164887915Y-105272374D01*
X165014075Y-105214614D01*
X165018681Y-105211413D01*
X165192767Y-105090420D01*
X165192769Y-105090418D01*
X165197375Y-105087217D01*
X165355217Y-104929375D01*
X165482614Y-104746075D01*
X165575537Y-104543113D01*
X165631051Y-104326902D01*
X165638573Y-104234417D01*
X165642293Y-104188689D01*
X165642293Y-104188677D01*
X165642500Y-104186138D01*
X165642500Y-102061862D01*
X165640815Y-102041138D01*
X165631486Y-101926451D01*
X165631051Y-101921098D01*
X165575537Y-101704887D01*
X165482614Y-101501925D01*
X165398579Y-101381014D01*
X165358420Y-101323233D01*
X165358418Y-101323231D01*
X165355217Y-101318625D01*
X165197375Y-101160783D01*
X165192769Y-101157582D01*
X165192767Y-101157580D01*
X165018681Y-101036587D01*
X165018679Y-101036586D01*
X165014075Y-101033386D01*
X164887915Y-100975626D01*
X164816218Y-100942800D01*
X164816216Y-100942799D01*
X164811113Y-100940463D01*
X164594902Y-100884949D01*
X164530768Y-100879733D01*
X164456689Y-100873707D01*
X164456677Y-100873707D01*
X164454138Y-100873500D01*
X160429862Y-100873500D01*
X160427323Y-100873707D01*
X160427311Y-100873707D01*
X160353232Y-100879733D01*
X160289098Y-100884949D01*
X160072887Y-100940463D01*
X160067784Y-100942799D01*
X160067782Y-100942800D01*
X159996085Y-100975626D01*
X159869925Y-101033386D01*
X159865321Y-101036586D01*
X159865319Y-101036587D01*
X159691233Y-101157580D01*
X159691231Y-101157582D01*
X159686625Y-101160783D01*
X159528783Y-101318625D01*
X159525582Y-101323231D01*
X159525580Y-101323233D01*
X159485421Y-101381014D01*
X159401386Y-101501925D01*
X159308463Y-101704887D01*
X159252949Y-101921098D01*
X159252514Y-101926451D01*
X159243186Y-102041138D01*
X159241500Y-102061862D01*
X159241500Y-104186138D01*
X159241707Y-104188677D01*
X159241707Y-104188689D01*
X159245427Y-104234417D01*
X159252949Y-104326902D01*
X159308463Y-104543113D01*
X159401386Y-104746075D01*
X159528783Y-104929375D01*
X159686625Y-105087217D01*
X159691231Y-105090418D01*
X159691233Y-105090420D01*
X159865319Y-105211413D01*
X159869925Y-105214614D01*
X159996085Y-105272374D01*
X160067782Y-105305200D01*
X160067784Y-105305201D01*
X160072887Y-105307537D01*
X160289098Y-105363051D01*
X160353232Y-105368267D01*
X160427311Y-105374293D01*
X160427323Y-105374293D01*
X160429862Y-105374500D01*
X160815500Y-105374500D01*
X160883621Y-105394502D01*
X160930114Y-105448158D01*
X160941500Y-105500500D01*
X160941500Y-111923500D01*
X160921498Y-111991621D01*
X160867842Y-112038114D01*
X160815500Y-112049500D01*
X159667862Y-112049500D01*
X159665323Y-112049707D01*
X159665311Y-112049707D01*
X159591232Y-112055733D01*
X159527098Y-112060949D01*
X159310887Y-112116463D01*
X159305784Y-112118799D01*
X159305782Y-112118800D01*
X159252147Y-112143356D01*
X159107925Y-112209386D01*
X159103321Y-112212586D01*
X159103319Y-112212587D01*
X158929233Y-112333580D01*
X158929231Y-112333582D01*
X158924625Y-112336783D01*
X158766783Y-112494625D01*
X158763582Y-112499231D01*
X158763580Y-112499233D01*
X158678356Y-112621854D01*
X158639386Y-112677925D01*
X158598994Y-112766149D01*
X158575655Y-112817127D01*
X158546463Y-112880887D01*
X158490949Y-113097098D01*
X158479500Y-113237862D01*
X158479500Y-115362138D01*
X156480500Y-115362138D01*
X156480500Y-113237862D01*
X156469051Y-113097098D01*
X156413537Y-112880887D01*
X156384346Y-112817127D01*
X156361006Y-112766149D01*
X156320614Y-112677925D01*
X156281644Y-112621854D01*
X156196420Y-112499233D01*
X156196418Y-112499231D01*
X156193217Y-112494625D01*
X156035375Y-112336783D01*
X156030769Y-112333582D01*
X156030767Y-112333580D01*
X155856681Y-112212587D01*
X155856679Y-112212586D01*
X155852075Y-112209386D01*
X155707853Y-112143356D01*
X155654218Y-112118800D01*
X155654216Y-112118799D01*
X155649113Y-112116463D01*
X155432902Y-112060949D01*
X155368768Y-112055733D01*
X155294689Y-112049707D01*
X155294677Y-112049707D01*
X155292138Y-112049500D01*
X154656500Y-112049500D01*
X154588379Y-112029498D01*
X154541886Y-111975842D01*
X154530500Y-111923500D01*
X154530500Y-111751827D01*
X154554177Y-111678301D01*
X154567569Y-111659664D01*
X154570588Y-111655463D01*
X154679911Y-111434264D01*
X154713045Y-111325207D01*
X154750135Y-111203132D01*
X154750136Y-111203126D01*
X154751639Y-111198180D01*
X154776337Y-111010579D01*
X154783408Y-110956872D01*
X154783409Y-110956866D01*
X154783845Y-110953550D01*
X154784223Y-110938088D01*
X154785561Y-110883364D01*
X154785561Y-110883360D01*
X154785643Y-110880000D01*
X154772846Y-110724354D01*
X154765849Y-110639240D01*
X154765848Y-110639234D01*
X154765425Y-110634089D01*
X154705316Y-110394783D01*
X154606928Y-110168507D01*
X154472905Y-109961339D01*
X154306846Y-109778842D01*
X154302795Y-109775643D01*
X154302791Y-109775639D01*
X154117264Y-109629119D01*
X154117259Y-109629116D01*
X154113210Y-109625918D01*
X154108694Y-109623425D01*
X154108691Y-109623423D01*
X153901722Y-109509170D01*
X153901718Y-109509168D01*
X153897198Y-109506673D01*
X153892329Y-109504949D01*
X153892325Y-109504947D01*
X153669485Y-109426035D01*
X153669481Y-109426034D01*
X153664610Y-109424309D01*
X153659517Y-109423402D01*
X153659514Y-109423401D01*
X153426783Y-109381945D01*
X153426777Y-109381944D01*
X153421694Y-109381039D01*
X153342324Y-109380069D01*
X153180142Y-109378088D01*
X153180140Y-109378088D01*
X153174972Y-109378025D01*
X152931070Y-109415347D01*
X152831345Y-109447942D01*
X152798596Y-109458646D01*
X152727632Y-109460797D01*
X152666770Y-109424241D01*
X152635334Y-109360583D01*
X152635132Y-109323110D01*
X152634864Y-109323090D01*
X152635113Y-109319694D01*
X152635107Y-109318523D01*
X152635274Y-109317501D01*
X152635274Y-109317498D01*
X152636182Y-109311954D01*
X152634516Y-109205894D01*
X152634500Y-109203916D01*
X152634500Y-106770862D01*
X152635578Y-106754415D01*
X152637720Y-106738147D01*
X152637720Y-106738145D01*
X152638453Y-106732578D01*
X152634640Y-106651729D01*
X152634500Y-106645793D01*
X152634500Y-106623370D01*
X152632196Y-106597548D01*
X152631837Y-106592287D01*
X152630026Y-106553884D01*
X152627937Y-106509602D01*
X152626686Y-106504139D01*
X152626685Y-106504133D01*
X152623972Y-106492289D01*
X152621290Y-106475355D01*
X152620210Y-106463257D01*
X152619711Y-106457661D01*
X152597869Y-106377819D01*
X152596583Y-106372701D01*
X152579355Y-106297479D01*
X152579355Y-106297478D01*
X152578103Y-106292013D01*
X152575905Y-106286859D01*
X152575901Y-106286848D01*
X152571134Y-106275674D01*
X152565495Y-106259483D01*
X152562290Y-106247767D01*
X152560808Y-106242349D01*
X152525165Y-106167623D01*
X152523007Y-106162843D01*
X152499900Y-106108669D01*
X152490524Y-106086687D01*
X152480764Y-106071829D01*
X152472358Y-106056909D01*
X152464708Y-106040871D01*
X152461433Y-106036313D01*
X152416402Y-105973646D01*
X152413413Y-105969297D01*
X152370506Y-105903977D01*
X152367970Y-105900116D01*
X152364896Y-105896666D01*
X152364890Y-105896658D01*
X152349596Y-105879492D01*
X152341352Y-105869203D01*
X152340293Y-105867729D01*
X152334448Y-105859595D01*
X152258209Y-105785714D01*
X152256799Y-105784325D01*
X152062069Y-105589595D01*
X152028043Y-105527283D01*
X152033108Y-105456468D01*
X152075655Y-105399632D01*
X152142175Y-105374821D01*
X152151164Y-105374500D01*
X156054138Y-105374500D01*
X156056677Y-105374293D01*
X156056689Y-105374293D01*
X156130768Y-105368267D01*
X156194902Y-105363051D01*
X156411113Y-105307537D01*
X156416216Y-105305201D01*
X156416218Y-105305200D01*
X156487915Y-105272374D01*
X156614075Y-105214614D01*
X156618681Y-105211413D01*
X156792767Y-105090420D01*
X156792769Y-105090418D01*
X156797375Y-105087217D01*
X156955217Y-104929375D01*
X157082614Y-104746075D01*
X157175537Y-104543113D01*
X157231051Y-104326902D01*
X157238573Y-104234417D01*
X157242293Y-104188689D01*
X157242293Y-104188677D01*
X157242500Y-104186138D01*
X157242500Y-102061862D01*
X157240815Y-102041138D01*
X157231486Y-101926451D01*
X157231051Y-101921098D01*
X157175537Y-101704887D01*
X157082614Y-101501925D01*
X156998579Y-101381014D01*
X156958420Y-101323233D01*
X156958418Y-101323231D01*
X156955217Y-101318625D01*
X156797375Y-101160783D01*
X156792769Y-101157582D01*
X156792767Y-101157580D01*
X156618681Y-101036587D01*
X156618679Y-101036586D01*
X156614075Y-101033386D01*
X156487915Y-100975626D01*
X156416218Y-100942800D01*
X156416216Y-100942799D01*
X156411113Y-100940463D01*
X156194902Y-100884949D01*
X156130768Y-100879733D01*
X156056689Y-100873707D01*
X156056677Y-100873707D01*
X156054138Y-100873500D01*
X155550500Y-100873500D01*
X155482379Y-100853498D01*
X155435886Y-100799842D01*
X155424500Y-100747500D01*
X155424500Y-99929216D01*
X155425578Y-99912770D01*
X155427408Y-99898872D01*
X155427408Y-99898866D01*
X155427845Y-99895550D01*
X155428310Y-99876530D01*
X155429561Y-99825364D01*
X155429561Y-99825360D01*
X155429643Y-99822000D01*
X155414376Y-99636309D01*
X155409849Y-99581240D01*
X155409848Y-99581234D01*
X155409425Y-99576089D01*
X155349316Y-99336783D01*
X155260666Y-99132903D01*
X155252993Y-99115256D01*
X155252993Y-99115255D01*
X155250928Y-99110507D01*
X155116905Y-98903339D01*
X155105911Y-98891256D01*
X155001499Y-98776509D01*
X154950846Y-98720842D01*
X154946795Y-98717643D01*
X154946791Y-98717639D01*
X154761264Y-98571119D01*
X154761259Y-98571116D01*
X154757210Y-98567918D01*
X154752694Y-98565425D01*
X154752691Y-98565423D01*
X154545722Y-98451170D01*
X154545718Y-98451168D01*
X154541198Y-98448673D01*
X154536329Y-98446949D01*
X154536325Y-98446947D01*
X154313485Y-98368035D01*
X154313481Y-98368034D01*
X154308610Y-98366309D01*
X154303517Y-98365402D01*
X154303514Y-98365401D01*
X154240343Y-98354149D01*
X154154414Y-98338842D01*
X154090858Y-98307205D01*
X154054494Y-98246228D01*
X154056871Y-98175271D01*
X154097232Y-98116863D01*
X154135715Y-98095583D01*
X154282825Y-98045240D01*
X154289892Y-98043051D01*
X154910762Y-97870557D01*
X154917946Y-97868787D01*
X155547847Y-97733037D01*
X155555122Y-97731691D01*
X156191930Y-97633141D01*
X156199272Y-97632225D01*
X156840746Y-97571225D01*
X156848128Y-97570741D01*
X157492081Y-97547495D01*
X157499480Y-97547445D01*
X157810567Y-97554490D01*
G37*
%TD.AperFunction*%
%TA.AperFunction,Conductor*%
G36*
X143331777Y-104926502D02*
G01*
X143378270Y-104980158D01*
X143388374Y-105050432D01*
X143381638Y-105076730D01*
X143355522Y-105146394D01*
X143351895Y-105161649D01*
X143346369Y-105212514D01*
X143346000Y-105219328D01*
X143346000Y-105391885D01*
X143350475Y-105407124D01*
X143351865Y-105408329D01*
X143359548Y-105410000D01*
X144932000Y-105410000D01*
X145000121Y-105430002D01*
X145046614Y-105483658D01*
X145058000Y-105536000D01*
X145058000Y-106553884D01*
X145062475Y-106569123D01*
X145063865Y-106570328D01*
X145071548Y-106571999D01*
X145727500Y-106571999D01*
X145795621Y-106592001D01*
X145842114Y-106645657D01*
X145853500Y-106697999D01*
X145853500Y-107071816D01*
X145864234Y-107192087D01*
X145920259Y-107387470D01*
X146014427Y-107567596D01*
X146142891Y-107725109D01*
X146147831Y-107729138D01*
X146298913Y-107852357D01*
X146339061Y-107910912D01*
X146341178Y-107981877D01*
X146304593Y-108042721D01*
X146298912Y-108047643D01*
X146142891Y-108174891D01*
X146014427Y-108332404D01*
X145920259Y-108512530D01*
X145864234Y-108707913D01*
X145863701Y-108713886D01*
X145858634Y-108770664D01*
X145853500Y-108828184D01*
X145853500Y-109202000D01*
X145833498Y-109270121D01*
X145779842Y-109316614D01*
X145727500Y-109328000D01*
X145076115Y-109328000D01*
X145060876Y-109332475D01*
X145059671Y-109333865D01*
X145058000Y-109341548D01*
X145058000Y-111125884D01*
X145062475Y-111141123D01*
X145063865Y-111142328D01*
X145071548Y-111143999D01*
X145727500Y-111143999D01*
X145795621Y-111164001D01*
X145842114Y-111217657D01*
X145853500Y-111269999D01*
X145853500Y-111643816D01*
X145864234Y-111764087D01*
X145920259Y-111959470D01*
X146014427Y-112139596D01*
X146054203Y-112188367D01*
X146081756Y-112253796D01*
X146069561Y-112323737D01*
X146054206Y-112347630D01*
X146014427Y-112396404D01*
X145920259Y-112576530D01*
X145864234Y-112771913D01*
X145863701Y-112777886D01*
X145863701Y-112777887D01*
X145863093Y-112784698D01*
X145837117Y-112850771D01*
X145779541Y-112892312D01*
X145737592Y-112899500D01*
X143796184Y-112899500D01*
X143793397Y-112899749D01*
X143793391Y-112899749D01*
X143707545Y-112907411D01*
X143675913Y-112910234D01*
X143480530Y-112966259D01*
X143351319Y-113033809D01*
X143348731Y-113035162D01*
X143290356Y-113049500D01*
X143112169Y-113049500D01*
X143051276Y-113033809D01*
X142861727Y-112929173D01*
X142861726Y-112929172D01*
X142857198Y-112926673D01*
X142852329Y-112924949D01*
X142852325Y-112924947D01*
X142629485Y-112846035D01*
X142629481Y-112846034D01*
X142624610Y-112844309D01*
X142619517Y-112843402D01*
X142619514Y-112843401D01*
X142386783Y-112801945D01*
X142386777Y-112801944D01*
X142381694Y-112801039D01*
X142237307Y-112799275D01*
X142161170Y-112798345D01*
X142093299Y-112777512D01*
X142047465Y-112723292D01*
X142038220Y-112652900D01*
X142041591Y-112637622D01*
X142046113Y-112621854D01*
X142046114Y-112621847D01*
X142047766Y-112616087D01*
X142052563Y-112562342D01*
X142058251Y-112498609D01*
X142058251Y-112498603D01*
X142058500Y-112495816D01*
X142058500Y-110680669D01*
X143346001Y-110680669D01*
X143346371Y-110687490D01*
X143351895Y-110738352D01*
X143355521Y-110753604D01*
X143400676Y-110874054D01*
X143409214Y-110889649D01*
X143485715Y-110991724D01*
X143498276Y-111004285D01*
X143600351Y-111080786D01*
X143615946Y-111089324D01*
X143736394Y-111134478D01*
X143751649Y-111138105D01*
X143802514Y-111143631D01*
X143809328Y-111144000D01*
X144531885Y-111144000D01*
X144547124Y-111139525D01*
X144548329Y-111138135D01*
X144550000Y-111130452D01*
X144550000Y-110508115D01*
X144545525Y-110492876D01*
X144544135Y-110491671D01*
X144536452Y-110490000D01*
X143364116Y-110490000D01*
X143348877Y-110494475D01*
X143347672Y-110495865D01*
X143346001Y-110503548D01*
X143346001Y-110680669D01*
X142058500Y-110680669D01*
X142058500Y-109963885D01*
X143346000Y-109963885D01*
X143350475Y-109979124D01*
X143351865Y-109980329D01*
X143359548Y-109982000D01*
X144531885Y-109982000D01*
X144547124Y-109977525D01*
X144548329Y-109976135D01*
X144550000Y-109968452D01*
X144550000Y-109346116D01*
X144545525Y-109330877D01*
X144544135Y-109329672D01*
X144536452Y-109328001D01*
X143809331Y-109328001D01*
X143802510Y-109328371D01*
X143751648Y-109333895D01*
X143736396Y-109337521D01*
X143615946Y-109382676D01*
X143600351Y-109391214D01*
X143498276Y-109467715D01*
X143485715Y-109480276D01*
X143409214Y-109582351D01*
X143400676Y-109597946D01*
X143355522Y-109718394D01*
X143351895Y-109733649D01*
X143346369Y-109784514D01*
X143346000Y-109791328D01*
X143346000Y-109963885D01*
X142058500Y-109963885D01*
X142058500Y-109080184D01*
X142047766Y-108959913D01*
X141991741Y-108764530D01*
X141988786Y-108758878D01*
X141988751Y-108758790D01*
X141982026Y-108688112D01*
X141988751Y-108665210D01*
X141988786Y-108665122D01*
X141991741Y-108659470D01*
X141998423Y-108636169D01*
X142046113Y-108469851D01*
X142047766Y-108464087D01*
X142058500Y-108343816D01*
X142058500Y-106108669D01*
X143346001Y-106108669D01*
X143346371Y-106115490D01*
X143351895Y-106166352D01*
X143355521Y-106181604D01*
X143400676Y-106302054D01*
X143409214Y-106317649D01*
X143485715Y-106419724D01*
X143498276Y-106432285D01*
X143600351Y-106508786D01*
X143615946Y-106517324D01*
X143736394Y-106562478D01*
X143751649Y-106566105D01*
X143802514Y-106571631D01*
X143809328Y-106572000D01*
X144531885Y-106572000D01*
X144547124Y-106567525D01*
X144548329Y-106566135D01*
X144550000Y-106558452D01*
X144550000Y-105936115D01*
X144545525Y-105920876D01*
X144544135Y-105919671D01*
X144536452Y-105918000D01*
X143364116Y-105918000D01*
X143348877Y-105922475D01*
X143347672Y-105923865D01*
X143346001Y-105931548D01*
X143346001Y-106108669D01*
X142058500Y-106108669D01*
X142058500Y-105032500D01*
X142078502Y-104964379D01*
X142132158Y-104917886D01*
X142184500Y-104906500D01*
X143263656Y-104906500D01*
X143331777Y-104926502D01*
G37*
%TD.AperFunction*%
%TD*%
M02*
