%TF.GenerationSoftware,KiCad,Pcbnew,(6.0.1)*%
%TF.CreationDate,2022-02-14T16:30:39+01:00*%
%TF.ProjectId,Gleichrichter_Fernlicht,476c6569-6368-4726-9963-687465725f46,rev?*%
%TF.SameCoordinates,Original*%
%TF.FileFunction,Legend,Bot*%
%TF.FilePolarity,Positive*%
%FSLAX46Y46*%
G04 Gerber Fmt 4.6, Leading zero omitted, Abs format (unit mm)*
G04 Created by KiCad (PCBNEW (6.0.1)) date 2022-02-14 16:30:39*
%MOMM*%
%LPD*%
G01*
G04 APERTURE LIST*
%ADD10C,0.200000*%
%ADD11C,0.150000*%
%ADD12C,0.120000*%
G04 APERTURE END LIST*
D10*
X154034952Y-121356380D02*
X154034952Y-120356380D01*
X153796857Y-120356380D01*
X153654000Y-120404000D01*
X153558761Y-120499238D01*
X153511142Y-120594476D01*
X153463523Y-120784952D01*
X153463523Y-120927809D01*
X153511142Y-121118285D01*
X153558761Y-121213523D01*
X153654000Y-121308761D01*
X153796857Y-121356380D01*
X154034952Y-121356380D01*
X152463523Y-121261142D02*
X152511142Y-121308761D01*
X152654000Y-121356380D01*
X152749238Y-121356380D01*
X152892095Y-121308761D01*
X152987333Y-121213523D01*
X153034952Y-121118285D01*
X153082571Y-120927809D01*
X153082571Y-120784952D01*
X153034952Y-120594476D01*
X152987333Y-120499238D01*
X152892095Y-120404000D01*
X152749238Y-120356380D01*
X152654000Y-120356380D01*
X152511142Y-120404000D01*
X152463523Y-120451619D01*
X152034952Y-120975428D02*
X151273047Y-120975428D01*
X135969238Y-102782666D02*
X135493047Y-102782666D01*
X136064476Y-103068380D02*
X135731142Y-102068380D01*
X135397809Y-103068380D01*
X134493047Y-102973142D02*
X134540666Y-103020761D01*
X134683523Y-103068380D01*
X134778761Y-103068380D01*
X134921619Y-103020761D01*
X135016857Y-102925523D01*
X135064476Y-102830285D01*
X135112095Y-102639809D01*
X135112095Y-102496952D01*
X135064476Y-102306476D01*
X135016857Y-102211238D01*
X134921619Y-102116000D01*
X134778761Y-102068380D01*
X134683523Y-102068380D01*
X134540666Y-102116000D01*
X134493047Y-102163619D01*
X134207333Y-102687428D02*
X134159714Y-102639809D01*
X134064476Y-102592190D01*
X133874000Y-102687428D01*
X133778761Y-102639809D01*
X133731142Y-102592190D01*
X136223238Y-109894666D02*
X135747047Y-109894666D01*
X136318476Y-110180380D02*
X135985142Y-109180380D01*
X135651809Y-110180380D01*
X134747047Y-110085142D02*
X134794666Y-110132761D01*
X134937523Y-110180380D01*
X135032761Y-110180380D01*
X135175619Y-110132761D01*
X135270857Y-110037523D01*
X135318476Y-109942285D01*
X135366095Y-109751809D01*
X135366095Y-109608952D01*
X135318476Y-109418476D01*
X135270857Y-109323238D01*
X135175619Y-109228000D01*
X135032761Y-109180380D01*
X134937523Y-109180380D01*
X134794666Y-109228000D01*
X134747047Y-109275619D01*
X134461333Y-109799428D02*
X134413714Y-109751809D01*
X134318476Y-109704190D01*
X134128000Y-109799428D01*
X134032761Y-109751809D01*
X133985142Y-109704190D01*
X137524952Y-121102380D02*
X137524952Y-120102380D01*
X137286857Y-120102380D01*
X137144000Y-120150000D01*
X137048761Y-120245238D01*
X137001142Y-120340476D01*
X136953523Y-120530952D01*
X136953523Y-120673809D01*
X137001142Y-120864285D01*
X137048761Y-120959523D01*
X137144000Y-121054761D01*
X137286857Y-121102380D01*
X137524952Y-121102380D01*
X135953523Y-121007142D02*
X136001142Y-121054761D01*
X136144000Y-121102380D01*
X136239238Y-121102380D01*
X136382095Y-121054761D01*
X136477333Y-120959523D01*
X136524952Y-120864285D01*
X136572571Y-120673809D01*
X136572571Y-120530952D01*
X136524952Y-120340476D01*
X136477333Y-120245238D01*
X136382095Y-120150000D01*
X136239238Y-120102380D01*
X136144000Y-120102380D01*
X136001142Y-120150000D01*
X135953523Y-120197619D01*
X135524952Y-120721428D02*
X134763047Y-120721428D01*
X135144000Y-121102380D02*
X135144000Y-120340476D01*
D11*
%TO.C,C1*%
X166536666Y-106529142D02*
X166584285Y-106576761D01*
X166727142Y-106624380D01*
X166822380Y-106624380D01*
X166965238Y-106576761D01*
X167060476Y-106481523D01*
X167108095Y-106386285D01*
X167155714Y-106195809D01*
X167155714Y-106052952D01*
X167108095Y-105862476D01*
X167060476Y-105767238D01*
X166965238Y-105672000D01*
X166822380Y-105624380D01*
X166727142Y-105624380D01*
X166584285Y-105672000D01*
X166536666Y-105719619D01*
X165584285Y-106624380D02*
X166155714Y-106624380D01*
X165870000Y-106624380D02*
X165870000Y-105624380D01*
X165965238Y-105767238D01*
X166060476Y-105862476D01*
X166155714Y-105910095D01*
%TO.C,Q4*%
X150209238Y-102909619D02*
X150304476Y-102862000D01*
X150399714Y-102766761D01*
X150542571Y-102623904D01*
X150637809Y-102576285D01*
X150733047Y-102576285D01*
X150685428Y-102814380D02*
X150780666Y-102766761D01*
X150875904Y-102671523D01*
X150923523Y-102481047D01*
X150923523Y-102147714D01*
X150875904Y-101957238D01*
X150780666Y-101862000D01*
X150685428Y-101814380D01*
X150494952Y-101814380D01*
X150399714Y-101862000D01*
X150304476Y-101957238D01*
X150256857Y-102147714D01*
X150256857Y-102481047D01*
X150304476Y-102671523D01*
X150399714Y-102766761D01*
X150494952Y-102814380D01*
X150685428Y-102814380D01*
X149399714Y-102147714D02*
X149399714Y-102814380D01*
X149637809Y-101766761D02*
X149875904Y-102481047D01*
X149256857Y-102481047D01*
%TO.C,Q2*%
X142589238Y-114339619D02*
X142684476Y-114292000D01*
X142779714Y-114196761D01*
X142922571Y-114053904D01*
X143017809Y-114006285D01*
X143113047Y-114006285D01*
X143065428Y-114244380D02*
X143160666Y-114196761D01*
X143255904Y-114101523D01*
X143303523Y-113911047D01*
X143303523Y-113577714D01*
X143255904Y-113387238D01*
X143160666Y-113292000D01*
X143065428Y-113244380D01*
X142874952Y-113244380D01*
X142779714Y-113292000D01*
X142684476Y-113387238D01*
X142636857Y-113577714D01*
X142636857Y-113911047D01*
X142684476Y-114101523D01*
X142779714Y-114196761D01*
X142874952Y-114244380D01*
X143065428Y-114244380D01*
X142255904Y-113339619D02*
X142208285Y-113292000D01*
X142113047Y-113244380D01*
X141874952Y-113244380D01*
X141779714Y-113292000D01*
X141732095Y-113339619D01*
X141684476Y-113434857D01*
X141684476Y-113530095D01*
X141732095Y-113672952D01*
X142303523Y-114244380D01*
X141684476Y-114244380D01*
%TO.C,C2*%
X166028666Y-114657142D02*
X166076285Y-114704761D01*
X166219142Y-114752380D01*
X166314380Y-114752380D01*
X166457238Y-114704761D01*
X166552476Y-114609523D01*
X166600095Y-114514285D01*
X166647714Y-114323809D01*
X166647714Y-114180952D01*
X166600095Y-113990476D01*
X166552476Y-113895238D01*
X166457238Y-113800000D01*
X166314380Y-113752380D01*
X166219142Y-113752380D01*
X166076285Y-113800000D01*
X166028666Y-113847619D01*
X165647714Y-113847619D02*
X165600095Y-113800000D01*
X165504857Y-113752380D01*
X165266761Y-113752380D01*
X165171523Y-113800000D01*
X165123904Y-113847619D01*
X165076285Y-113942857D01*
X165076285Y-114038095D01*
X165123904Y-114180952D01*
X165695333Y-114752380D01*
X165076285Y-114752380D01*
%TO.C,Q1*%
X150209238Y-106211619D02*
X150304476Y-106164000D01*
X150399714Y-106068761D01*
X150542571Y-105925904D01*
X150637809Y-105878285D01*
X150733047Y-105878285D01*
X150685428Y-106116380D02*
X150780666Y-106068761D01*
X150875904Y-105973523D01*
X150923523Y-105783047D01*
X150923523Y-105449714D01*
X150875904Y-105259238D01*
X150780666Y-105164000D01*
X150685428Y-105116380D01*
X150494952Y-105116380D01*
X150399714Y-105164000D01*
X150304476Y-105259238D01*
X150256857Y-105449714D01*
X150256857Y-105783047D01*
X150304476Y-105973523D01*
X150399714Y-106068761D01*
X150494952Y-106116380D01*
X150685428Y-106116380D01*
X149304476Y-106116380D02*
X149875904Y-106116380D01*
X149590190Y-106116380D02*
X149590190Y-105116380D01*
X149685428Y-105259238D01*
X149780666Y-105354476D01*
X149875904Y-105402095D01*
%TO.C,D2*%
X138910380Y-103147904D02*
X137910380Y-103147904D01*
X137910380Y-103386000D01*
X137958000Y-103528857D01*
X138053238Y-103624095D01*
X138148476Y-103671714D01*
X138338952Y-103719333D01*
X138481809Y-103719333D01*
X138672285Y-103671714D01*
X138767523Y-103624095D01*
X138862761Y-103528857D01*
X138910380Y-103386000D01*
X138910380Y-103147904D01*
X138005619Y-104100285D02*
X137958000Y-104147904D01*
X137910380Y-104243142D01*
X137910380Y-104481238D01*
X137958000Y-104576476D01*
X138005619Y-104624095D01*
X138100857Y-104671714D01*
X138196095Y-104671714D01*
X138338952Y-104624095D01*
X138910380Y-104052666D01*
X138910380Y-104671714D01*
%TO.C,Q3*%
X150463238Y-111037619D02*
X150558476Y-110990000D01*
X150653714Y-110894761D01*
X150796571Y-110751904D01*
X150891809Y-110704285D01*
X150987047Y-110704285D01*
X150939428Y-110942380D02*
X151034666Y-110894761D01*
X151129904Y-110799523D01*
X151177523Y-110609047D01*
X151177523Y-110275714D01*
X151129904Y-110085238D01*
X151034666Y-109990000D01*
X150939428Y-109942380D01*
X150748952Y-109942380D01*
X150653714Y-109990000D01*
X150558476Y-110085238D01*
X150510857Y-110275714D01*
X150510857Y-110609047D01*
X150558476Y-110799523D01*
X150653714Y-110894761D01*
X150748952Y-110942380D01*
X150939428Y-110942380D01*
X150177523Y-109942380D02*
X149558476Y-109942380D01*
X149891809Y-110323333D01*
X149748952Y-110323333D01*
X149653714Y-110370952D01*
X149606095Y-110418571D01*
X149558476Y-110513809D01*
X149558476Y-110751904D01*
X149606095Y-110847142D01*
X149653714Y-110894761D01*
X149748952Y-110942380D01*
X150034666Y-110942380D01*
X150129904Y-110894761D01*
X150177523Y-110847142D01*
%TO.C,D1*%
X138882380Y-112799904D02*
X137882380Y-112799904D01*
X137882380Y-113038000D01*
X137930000Y-113180857D01*
X138025238Y-113276095D01*
X138120476Y-113323714D01*
X138310952Y-113371333D01*
X138453809Y-113371333D01*
X138644285Y-113323714D01*
X138739523Y-113276095D01*
X138834761Y-113180857D01*
X138882380Y-113038000D01*
X138882380Y-112799904D01*
X138882380Y-114323714D02*
X138882380Y-113752285D01*
X138882380Y-114038000D02*
X137882380Y-114038000D01*
X138025238Y-113942761D01*
X138120476Y-113847523D01*
X138168095Y-113752285D01*
D12*
%TO.C,C1*%
X164467000Y-99739000D02*
X164467000Y-100989000D01*
X163602000Y-98828437D02*
X163602000Y-101614000D01*
X165092000Y-100364000D02*
X163842000Y-100364000D01*
X162537563Y-97764000D02*
X152882000Y-97764000D01*
X152882000Y-97764000D02*
X152882000Y-101614000D01*
X163602000Y-107419563D02*
X163602000Y-104634000D01*
X163602000Y-98828437D02*
X162537563Y-97764000D01*
X152882000Y-108484000D02*
X152882000Y-104634000D01*
X163602000Y-107419563D02*
X162537563Y-108484000D01*
X162537563Y-108484000D02*
X152882000Y-108484000D01*
%TO.C,Q4*%
X145544000Y-100020000D02*
X145544000Y-100950000D01*
X145544000Y-103180000D02*
X147004000Y-103180000D01*
X145544000Y-103180000D02*
X145544000Y-102250000D01*
X145544000Y-100020000D02*
X148704000Y-100020000D01*
%TO.C,TP2*%
X147902000Y-122100000D02*
X150802000Y-122100000D01*
X150802000Y-122100000D02*
X150802000Y-119200000D01*
X150802000Y-119200000D02*
X147902000Y-119200000D01*
X147902000Y-119200000D02*
X147902000Y-122100000D01*
%TO.C,Q2*%
X145544000Y-115880000D02*
X145544000Y-114950000D01*
X145544000Y-112720000D02*
X148704000Y-112720000D01*
X145544000Y-112720000D02*
X145544000Y-113650000D01*
X145544000Y-115880000D02*
X147004000Y-115880000D01*
%TO.C,C2*%
X162840000Y-110004437D02*
X162840000Y-112790000D01*
X162840000Y-110004437D02*
X161775563Y-108940000D01*
X161775563Y-108940000D02*
X152120000Y-108940000D01*
X152120000Y-108940000D02*
X152120000Y-112790000D01*
X161775563Y-119660000D02*
X152120000Y-119660000D01*
X162840000Y-118595563D02*
X162840000Y-115810000D01*
X162840000Y-118595563D02*
X161775563Y-119660000D01*
X164330000Y-111540000D02*
X163080000Y-111540000D01*
X152120000Y-119660000D02*
X152120000Y-115810000D01*
X163705000Y-110915000D02*
X163705000Y-112165000D01*
%TO.C,TP4*%
X136578000Y-108130000D02*
X136578000Y-105230000D01*
X136578000Y-105230000D02*
X133678000Y-105230000D01*
X133678000Y-105230000D02*
X133678000Y-108130000D01*
X133678000Y-108130000D02*
X136578000Y-108130000D01*
%TO.C,TP3*%
X141150000Y-122100000D02*
X141150000Y-119200000D01*
X141150000Y-119200000D02*
X138250000Y-119200000D01*
X138250000Y-122100000D02*
X141150000Y-122100000D01*
X138250000Y-119200000D02*
X138250000Y-122100000D01*
%TO.C,Q1*%
X145544000Y-107244000D02*
X145544000Y-106314000D01*
X145544000Y-107244000D02*
X147004000Y-107244000D01*
X145544000Y-104084000D02*
X145544000Y-105014000D01*
X145544000Y-104084000D02*
X148704000Y-104084000D01*
%TO.C,D2*%
X141208000Y-99336000D02*
X141208000Y-106636000D01*
X139208000Y-106636000D02*
X139208000Y-99336000D01*
X139208000Y-99336000D02*
X141208000Y-99336000D01*
%TO.C,Q3*%
X145544000Y-111816000D02*
X147004000Y-111816000D01*
X145544000Y-108656000D02*
X148704000Y-108656000D01*
X145544000Y-111816000D02*
X145544000Y-110886000D01*
X145544000Y-108656000D02*
X145544000Y-109586000D01*
%TO.C,TP1*%
X136578000Y-98626000D02*
X133678000Y-98626000D01*
X133678000Y-98626000D02*
X133678000Y-101526000D01*
X133678000Y-101526000D02*
X136578000Y-101526000D01*
X136578000Y-101526000D02*
X136578000Y-98626000D01*
%TO.C,D1*%
X141208000Y-110788000D02*
X141208000Y-118088000D01*
X139208000Y-118088000D02*
X139208000Y-110788000D01*
X141208000Y-118088000D02*
X139208000Y-118088000D01*
%TD*%
M02*
