%TF.GenerationSoftware,KiCad,Pcbnew,9.0.3*%
%TF.CreationDate,2025-12-28T20:16:34+01:00*%
%TF.ProjectId,Gleichrichter_Fernlicht,476c6569-6368-4726-9963-687465725f46,rev?*%
%TF.SameCoordinates,Original*%
%TF.FileFunction,Copper,L2,Bot*%
%TF.FilePolarity,Positive*%
%FSLAX46Y46*%
G04 Gerber Fmt 4.6, Leading zero omitted, Abs format (unit mm)*
G04 Created by KiCad (PCBNEW 9.0.3) date 2025-12-28 20:16:34*
%MOMM*%
%LPD*%
G01*
G04 APERTURE LIST*
G04 Aperture macros list*
%AMRoundRect*
0 Rectangle with rounded corners*
0 $1 Rounding radius*
0 $2 $3 $4 $5 $6 $7 $8 $9 X,Y pos of 4 corners*
0 Add a 4 corners polygon primitive as box body*
4,1,4,$2,$3,$4,$5,$6,$7,$8,$9,$2,$3,0*
0 Add four circle primitives for the rounded corners*
1,1,$1+$1,$2,$3*
1,1,$1+$1,$4,$5*
1,1,$1+$1,$6,$7*
1,1,$1+$1,$8,$9*
0 Add four rect primitives between the rounded corners*
20,1,$1+$1,$2,$3,$4,$5,0*
20,1,$1+$1,$4,$5,$6,$7,0*
20,1,$1+$1,$6,$7,$8,$9,0*
20,1,$1+$1,$8,$9,$2,$3,0*%
G04 Aperture macros list end*
%TA.AperFunction,SMDPad,CuDef*%
%ADD10RoundRect,0.200000X0.750000X0.200000X-0.750000X0.200000X-0.750000X-0.200000X0.750000X-0.200000X0*%
%TD*%
%TA.AperFunction,SMDPad,CuDef*%
%ADD11RoundRect,0.200000X-0.750000X-0.200000X0.750000X-0.200000X0.750000X0.200000X-0.750000X0.200000X0*%
%TD*%
%TA.AperFunction,SMDPad,CuDef*%
%ADD12RoundRect,0.250000X0.600000X-1.400000X0.600000X1.400000X-0.600000X1.400000X-0.600000X-1.400000X0*%
%TD*%
%TA.AperFunction,SMDPad,CuDef*%
%ADD13RoundRect,0.225000X-0.375000X0.225000X-0.375000X-0.225000X0.375000X-0.225000X0.375000X0.225000X0*%
%TD*%
%TA.AperFunction,SMDPad,CuDef*%
%ADD14RoundRect,0.225000X0.375000X-0.225000X0.375000X0.225000X-0.375000X0.225000X-0.375000X-0.225000X0*%
%TD*%
%TA.AperFunction,SMDPad,CuDef*%
%ADD15RoundRect,0.250000X-0.600000X1.400000X-0.600000X-1.400000X0.600000X-1.400000X0.600000X1.400000X0*%
%TD*%
%TA.AperFunction,SMDPad,CuDef*%
%ADD16R,2.500000X2.500000*%
%TD*%
%TA.AperFunction,SMDPad,CuDef*%
%ADD17RoundRect,0.250000X1.950000X1.000000X-1.950000X1.000000X-1.950000X-1.000000X1.950000X-1.000000X0*%
%TD*%
%TA.AperFunction,ViaPad*%
%ADD18C,0.800000*%
%TD*%
%TA.AperFunction,ViaPad*%
%ADD19C,1.000000*%
%TD*%
%TA.AperFunction,Conductor*%
%ADD20C,0.250000*%
%TD*%
%TA.AperFunction,Conductor*%
%ADD21C,0.500000*%
%TD*%
%TA.AperFunction,Conductor*%
%ADD22C,0.300000*%
%TD*%
%TA.AperFunction,Conductor*%
%ADD23C,1.000000*%
%TD*%
G04 APERTURE END LIST*
D10*
%TO.P,Q4,1,G*%
%TO.N,Net-(D1-K)*%
X148820000Y-110810000D03*
%TO.P,Q4,2,S*%
%TO.N,DC+*%
X148820000Y-112710000D03*
%TO.P,Q4,3,D*%
%TO.N,DYN_2*%
X145820000Y-111760000D03*
%TD*%
D11*
%TO.P,Q2,1,G*%
%TO.N,DYN_2*%
X145820000Y-102042000D03*
%TO.P,Q2,2,S*%
%TO.N,DC+*%
X145820000Y-100142000D03*
%TO.P,Q2,3,D*%
%TO.N,Net-(D1-K)*%
X148820000Y-101092000D03*
%TD*%
%TO.P,Q1,1,G*%
%TO.N,DYN_2*%
X145820000Y-105598000D03*
%TO.P,Q1,2,S*%
%TO.N,DC-*%
X145820000Y-103698000D03*
%TO.P,Q1,3,D*%
%TO.N,Net-(D1-K)*%
X148820000Y-104648000D03*
%TD*%
D10*
%TO.P,Q3,1,G*%
%TO.N,Net-(D1-K)*%
X148820000Y-107254000D03*
%TO.P,Q3,2,S*%
%TO.N,DC-*%
X148820000Y-109154000D03*
%TO.P,Q3,3,D*%
%TO.N,DYN_2*%
X145820000Y-108204000D03*
%TD*%
D12*
%TO.P,D3,1,K*%
%TO.N,Net-(D1-K)*%
X134620000Y-118574000D03*
%TO.P,D3,2,A*%
%TO.N,Net-(D1-A)*%
X134620000Y-113074000D03*
%TD*%
D13*
%TO.P,D2,1,K*%
%TO.N,DYN_2*%
X143002000Y-101474000D03*
%TO.P,D2,2,A*%
%TO.N,Net-(D1-A)*%
X143002000Y-104774000D03*
%TD*%
D14*
%TO.P,D1,2,A*%
%TO.N,Net-(D1-A)*%
X143002000Y-106554000D03*
%TO.P,D1,1,K*%
%TO.N,Net-(D1-K)*%
X143002000Y-109854000D03*
%TD*%
D15*
%TO.P,D4,2,A*%
%TO.N,Net-(D1-A)*%
X140208000Y-108160000D03*
%TO.P,D4,1,K*%
%TO.N,DYN_2*%
X140208000Y-102660000D03*
%TD*%
D16*
%TO.P,TP4,1,1*%
%TO.N,DYN_2*%
X135128000Y-106680000D03*
%TD*%
%TO.P,TP3,1,1*%
%TO.N,DC+*%
X139700000Y-120650000D03*
%TD*%
%TO.P,TP2,1,1*%
%TO.N,DC-*%
X149352000Y-120650000D03*
%TD*%
%TO.P,TP1,1,1*%
%TO.N,DYN_1*%
X135128000Y-100076000D03*
%TD*%
D17*
%TO.P,C2,1*%
%TO.N,Net-(C1-Pad1)*%
X161680000Y-114300000D03*
%TO.P,C2,2*%
%TO.N,Net-(D1-K)*%
X153280000Y-114300000D03*
%TD*%
%TO.P,C1,1*%
%TO.N,Net-(C1-Pad1)*%
X162442000Y-103124000D03*
%TO.P,C1,2*%
%TO.N,DYN_1*%
X154042000Y-103124000D03*
%TD*%
D18*
%TO.N,DC+*%
X150622000Y-111760000D03*
X150622000Y-106172000D03*
%TO.N,DC-*%
X149860000Y-109220000D03*
X148844000Y-102870000D03*
D19*
%TO.N,DC+*%
X143891000Y-112649000D03*
%TO.N,DYN_1*%
X135128000Y-102870000D03*
X153924000Y-99822000D03*
%TO.N,DYN_2*%
X135128000Y-109728000D03*
%TO.N,DC-*%
X149352000Y-117348000D03*
%TO.N,DC+*%
X137160000Y-120650000D03*
%TD*%
D20*
%TO.N,Net-(D1-K)*%
X141925000Y-114234000D02*
X153214000Y-114234000D01*
X141859000Y-114300000D02*
X141925000Y-114234000D01*
D21*
X141859000Y-110997000D02*
X143002000Y-109854000D01*
D20*
X153214000Y-114234000D02*
X153280000Y-114300000D01*
D21*
X141859000Y-114300000D02*
X141859000Y-110997000D01*
D22*
X149860000Y-101600000D02*
X149352000Y-101092000D01*
X149860000Y-104140000D02*
X149860000Y-101600000D01*
X149352000Y-101092000D02*
X148257500Y-101092000D01*
X148820000Y-104648000D02*
X149352000Y-104648000D01*
X149352000Y-104648000D02*
X149860000Y-104140000D01*
X148820000Y-104648000D02*
X148820000Y-107254000D01*
%TO.N,DC+*%
X143952000Y-112710000D02*
X143891000Y-112649000D01*
X148820000Y-112710000D02*
X143952000Y-112710000D01*
X150622000Y-112268000D02*
X150622000Y-111760000D01*
X148820000Y-112710000D02*
X150180000Y-112710000D01*
X150180000Y-112710000D02*
X150622000Y-112268000D01*
D20*
X143891000Y-112522000D02*
X143891000Y-112649000D01*
X144079000Y-112334000D02*
X143891000Y-112522000D01*
D21*
%TO.N,Net-(D1-K)*%
X134620000Y-117856000D02*
X134620000Y-118574000D01*
X138176000Y-114300000D02*
X134620000Y-117856000D01*
X153280000Y-114300000D02*
X138176000Y-114300000D01*
%TO.N,Net-(D1-A)*%
X140208000Y-112268000D02*
X140208000Y-108160000D01*
X139402000Y-113074000D02*
X140208000Y-112268000D01*
X134620000Y-113074000D02*
X139402000Y-113074000D01*
D22*
%TO.N,DYN_2*%
X145820000Y-111760000D02*
X145820000Y-108204000D01*
X145820000Y-105598000D02*
X145820000Y-108204000D01*
X144714000Y-105598000D02*
X144272000Y-105156000D01*
X144272000Y-101474000D02*
X144654000Y-101474000D01*
X146382500Y-105598000D02*
X144714000Y-105598000D01*
X144272000Y-105156000D02*
X144272000Y-101474000D01*
X144654000Y-101474000D02*
X145034000Y-101854000D01*
X143002000Y-101474000D02*
X144272000Y-101474000D01*
D23*
X140208000Y-104140000D02*
X140208000Y-102660000D01*
X137668000Y-106680000D02*
X140208000Y-104140000D01*
X135128000Y-106680000D02*
X137668000Y-106680000D01*
D22*
%TO.N,Net-(D1-K)*%
X152654000Y-110490000D02*
X150622000Y-110490000D01*
X153280000Y-111116000D02*
X152654000Y-110490000D01*
X153280000Y-114300000D02*
X153280000Y-111116000D01*
X150302000Y-110810000D02*
X150622000Y-110490000D01*
X150180000Y-107254000D02*
X148257500Y-107254000D01*
X150622000Y-107696000D02*
X150180000Y-107254000D01*
X150622000Y-110490000D02*
X150622000Y-107696000D01*
X150302000Y-110810000D02*
X148257500Y-110810000D01*
%TO.N,DC+*%
X150622000Y-101092000D02*
X150622000Y-106172000D01*
X149672000Y-100142000D02*
X150622000Y-101092000D01*
X146382500Y-100142000D02*
X149672000Y-100142000D01*
D20*
%TO.N,DC-*%
X149860000Y-109220000D02*
X149926000Y-109154000D01*
D21*
%TO.N,Net-(D1-A)*%
X140208000Y-106890000D02*
X140208000Y-108160000D01*
X142114000Y-107442000D02*
X140760000Y-107442000D01*
X143002000Y-106554000D02*
X142114000Y-107442000D01*
X140760000Y-107442000D02*
X140208000Y-106890000D01*
%TO.N,DYN_2*%
X140418000Y-102870000D02*
X140208000Y-102660000D01*
X141478000Y-102870000D02*
X140418000Y-102870000D01*
X142874000Y-101474000D02*
X141478000Y-102870000D01*
X143002000Y-101474000D02*
X142874000Y-101474000D01*
D20*
X146382500Y-102042000D02*
X145222000Y-102042000D01*
%TO.N,DC-*%
X149794000Y-109154000D02*
X149860000Y-109220000D01*
X148257500Y-109154000D02*
X149794000Y-109154000D01*
X148844000Y-102870000D02*
X148881000Y-102870000D01*
D22*
X148016000Y-103698000D02*
X148844000Y-102870000D01*
X146382500Y-103698000D02*
X148016000Y-103698000D01*
D21*
%TO.N,Net-(D1-A)*%
X143002000Y-106554000D02*
X143002000Y-104774000D01*
D23*
%TO.N,Net-(C1-Pad1)*%
X162442000Y-103124000D02*
X162442000Y-113538000D01*
X162442000Y-113538000D02*
X161680000Y-114300000D01*
D20*
%TO.N,DYN_1*%
X154042000Y-103124000D02*
X153924000Y-103006000D01*
D23*
X153924000Y-103006000D02*
X153924000Y-99822000D01*
X135128000Y-102870000D02*
X135128000Y-100076000D01*
%TO.N,DYN_2*%
X135128000Y-106680000D02*
X135128000Y-109728000D01*
D21*
%TO.N,DC-*%
X149352000Y-120650000D02*
X149352000Y-117348000D01*
D20*
%TO.N,DC+*%
X139700000Y-120650000D02*
X137160000Y-120650000D01*
%TO.N,DYN_2*%
X140208000Y-101136000D02*
X140208000Y-102169000D01*
X140208000Y-101136000D02*
X140208000Y-102108000D01*
%TD*%
%TA.AperFunction,Conductor*%
%TO.N,DC-*%
G36*
X157973291Y-96555600D02*
G01*
X157977616Y-96555716D01*
X158098685Y-96561111D01*
X158101012Y-96561239D01*
X158660882Y-96598042D01*
X158665302Y-96598413D01*
X158781160Y-96610295D01*
X158783540Y-96610563D01*
X159344997Y-96679557D01*
X159349638Y-96680216D01*
X159458993Y-96697847D01*
X159461303Y-96698242D01*
X160023640Y-96799932D01*
X160028251Y-96800858D01*
X160130012Y-96823348D01*
X160132075Y-96823824D01*
X160694270Y-96958741D01*
X160699093Y-96960000D01*
X160791852Y-96986189D01*
X160793716Y-96986731D01*
X161355040Y-97155559D01*
X161359792Y-97157095D01*
X161442233Y-97185594D01*
X161444123Y-97186264D01*
X162003472Y-97389676D01*
X162008351Y-97391566D01*
X162079051Y-97420668D01*
X162080779Y-97421394D01*
X162637673Y-97660411D01*
X162642559Y-97662633D01*
X162700020Y-97690259D01*
X162701578Y-97691021D01*
X163255508Y-97966879D01*
X163260364Y-97969433D01*
X163303000Y-97993048D01*
X163304379Y-97993823D01*
X163854905Y-98308066D01*
X163859707Y-98310952D01*
X163885857Y-98327474D01*
X163886946Y-98328170D01*
X164433996Y-98682924D01*
X164438708Y-98686136D01*
X164442180Y-98688620D01*
X164446185Y-98691487D01*
X164447241Y-98692252D01*
X164988321Y-99088370D01*
X164993937Y-99092730D01*
X165517445Y-99523540D01*
X165522817Y-99528222D01*
X165713232Y-99703911D01*
X166021096Y-99987967D01*
X166026200Y-99992951D01*
X166117785Y-100087596D01*
X166432867Y-100413204D01*
X166497660Y-100480161D01*
X166502469Y-100485422D01*
X166837616Y-100873501D01*
X166945579Y-100998515D01*
X166950087Y-101004044D01*
X167363468Y-101541423D01*
X167367657Y-101547199D01*
X167749948Y-102107096D01*
X167753802Y-102113099D01*
X168103786Y-102693730D01*
X168107295Y-102699942D01*
X168423866Y-103299472D01*
X168427017Y-103305873D01*
X168709138Y-103922341D01*
X168711922Y-103928910D01*
X168958701Y-104560359D01*
X168961109Y-104567074D01*
X169171753Y-105211480D01*
X169173777Y-105218322D01*
X169347613Y-105873631D01*
X169349246Y-105880576D01*
X169485710Y-106544650D01*
X169486948Y-106551676D01*
X169585608Y-107222428D01*
X169586446Y-107229513D01*
X169646985Y-107904779D01*
X169647420Y-107911900D01*
X169669641Y-108589486D01*
X169669673Y-108596620D01*
X169653509Y-109274392D01*
X169653137Y-109281517D01*
X169598636Y-109957275D01*
X169597862Y-109964367D01*
X169505199Y-110635982D01*
X169504024Y-110643019D01*
X169373500Y-111308289D01*
X169371929Y-111315249D01*
X169205774Y-111964974D01*
X169205426Y-111966302D01*
X169203083Y-111975065D01*
X169201468Y-111980596D01*
X169004494Y-112601930D01*
X169004035Y-112603347D01*
X168994358Y-112632664D01*
X168992469Y-112637984D01*
X168767070Y-113230288D01*
X168766483Y-113231801D01*
X168748523Y-113277227D01*
X168746385Y-113282307D01*
X168493969Y-113847150D01*
X168493244Y-113848743D01*
X168466394Y-113906654D01*
X168464025Y-113911490D01*
X168185863Y-114449877D01*
X168184987Y-114451541D01*
X168148894Y-114518914D01*
X168146317Y-114523493D01*
X167843650Y-115035926D01*
X167842614Y-115037648D01*
X167797063Y-115112033D01*
X167794298Y-115116349D01*
X167468254Y-115603153D01*
X167467048Y-115604921D01*
X167412075Y-115684057D01*
X167409145Y-115688101D01*
X167060796Y-116149414D01*
X167059411Y-116151214D01*
X166995214Y-116233117D01*
X166992140Y-116236887D01*
X166622581Y-116672625D01*
X166621012Y-116674441D01*
X166547821Y-116757479D01*
X166544624Y-116760971D01*
X166154923Y-117170962D01*
X166153161Y-117172779D01*
X166071378Y-117255430D01*
X166068080Y-117258643D01*
X165659345Y-117642587D01*
X165657388Y-117644387D01*
X165567449Y-117725367D01*
X165564070Y-117728302D01*
X165137393Y-118085872D01*
X165135235Y-118087640D01*
X165037711Y-118165759D01*
X165034273Y-118168417D01*
X164590736Y-118499252D01*
X164588377Y-118500970D01*
X164483894Y-118575201D01*
X164480416Y-118577585D01*
X164021152Y-118881274D01*
X164018589Y-118882925D01*
X163907805Y-118952389D01*
X163904308Y-118954503D01*
X163430447Y-119230630D01*
X163427680Y-119232196D01*
X163311368Y-119296098D01*
X163307872Y-119297948D01*
X162820540Y-119546102D01*
X162817572Y-119547565D01*
X162696519Y-119605255D01*
X162693040Y-119606848D01*
X162193404Y-119826598D01*
X162190237Y-119827940D01*
X162065331Y-119878855D01*
X162061889Y-119880199D01*
X161486792Y-120095178D01*
X161481821Y-120096919D01*
X160288955Y-120486840D01*
X160287194Y-120487401D01*
X159997906Y-120577287D01*
X159996458Y-120577728D01*
X158933151Y-120894164D01*
X158931214Y-120894724D01*
X158651124Y-120973220D01*
X158649827Y-120973575D01*
X157564629Y-121265253D01*
X157562514Y-121265802D01*
X157301964Y-121331009D01*
X157300822Y-121331290D01*
X156184690Y-121599573D01*
X156182396Y-121600101D01*
X155954886Y-121650312D01*
X155953901Y-121650525D01*
X154794888Y-121896609D01*
X154792417Y-121897108D01*
X154618306Y-121930450D01*
X154617480Y-121930606D01*
X153396340Y-122156017D01*
X153393690Y-122156477D01*
X153306656Y-122170629D01*
X153305993Y-122170735D01*
X152000197Y-122375919D01*
X151996869Y-122376396D01*
X151040786Y-122500593D01*
X150970656Y-122489533D01*
X150917639Y-122442314D01*
X150898567Y-122373927D01*
X150919495Y-122306085D01*
X150949047Y-122274774D01*
X150964904Y-122262903D01*
X151052444Y-122145965D01*
X151052444Y-122145964D01*
X151103494Y-122009093D01*
X151109999Y-121948597D01*
X151110000Y-121948585D01*
X151110000Y-120904000D01*
X149606000Y-120904000D01*
X149606000Y-122408001D01*
X149609880Y-122411881D01*
X149664783Y-122428002D01*
X149711276Y-122481658D01*
X149721380Y-122551932D01*
X149691886Y-122616512D01*
X149632160Y-122654896D01*
X149609554Y-122659339D01*
X149227765Y-122698610D01*
X149224417Y-122698909D01*
X147836091Y-122804377D01*
X147832737Y-122804587D01*
X146442061Y-122872984D01*
X146438701Y-122873104D01*
X145046736Y-122904379D01*
X145043375Y-122904410D01*
X143651034Y-122898543D01*
X143647673Y-122898484D01*
X142255982Y-122855477D01*
X142252624Y-122855328D01*
X141742994Y-122825955D01*
X141676137Y-122802067D01*
X141632808Y-122745825D01*
X141626765Y-122675086D01*
X141657680Y-122616558D01*
X141657071Y-122616061D01*
X141659547Y-122613024D01*
X141659925Y-122612309D01*
X141661103Y-122611113D01*
X141661109Y-122611109D01*
X141789698Y-122453407D01*
X141883909Y-122273049D01*
X141939886Y-122077418D01*
X141950500Y-121958037D01*
X141950500Y-121948597D01*
X147594000Y-121948597D01*
X147600505Y-122009093D01*
X147651555Y-122145964D01*
X147651555Y-122145965D01*
X147739095Y-122262904D01*
X147856034Y-122350444D01*
X147992906Y-122401494D01*
X148053402Y-122407999D01*
X148053415Y-122408000D01*
X149098000Y-122408000D01*
X149098000Y-120904000D01*
X147594000Y-120904000D01*
X147594000Y-121948597D01*
X141950500Y-121948597D01*
X141950499Y-120634269D01*
X141970501Y-120566149D01*
X142024157Y-120519656D01*
X142094431Y-120509552D01*
X142159011Y-120539045D01*
X142183186Y-120567234D01*
X142279265Y-120720143D01*
X142471882Y-120961677D01*
X142690322Y-121180117D01*
X142748041Y-121226146D01*
X142931857Y-121372735D01*
X143000820Y-121416067D01*
X143163282Y-121518149D01*
X143193435Y-121537095D01*
X143471771Y-121671135D01*
X143471787Y-121671140D01*
X143471788Y-121671141D01*
X143763357Y-121773166D01*
X143763360Y-121773166D01*
X143763364Y-121773168D01*
X143962131Y-121818535D01*
X144064543Y-121841910D01*
X144064544Y-121841910D01*
X144064548Y-121841911D01*
X144308565Y-121869405D01*
X144371534Y-121876500D01*
X144371535Y-121876500D01*
X144680466Y-121876500D01*
X144732717Y-121870612D01*
X144987452Y-121841911D01*
X145288636Y-121773168D01*
X145293978Y-121771299D01*
X145361534Y-121747659D01*
X145580229Y-121671135D01*
X145858565Y-121537095D01*
X146120143Y-121372735D01*
X146361674Y-121180120D01*
X146580120Y-120961674D01*
X146772735Y-120720143D01*
X146937095Y-120458565D01*
X147071135Y-120180229D01*
X147173168Y-119888636D01*
X147241911Y-119587452D01*
X147268507Y-119351402D01*
X147594000Y-119351402D01*
X147594000Y-120396000D01*
X149098000Y-120396000D01*
X149606000Y-120396000D01*
X151110000Y-120396000D01*
X151110000Y-119351414D01*
X151109999Y-119351402D01*
X151103494Y-119290906D01*
X151052444Y-119154035D01*
X151052444Y-119154034D01*
X150964904Y-119037095D01*
X150847965Y-118949555D01*
X150711093Y-118898505D01*
X150650597Y-118892000D01*
X149606000Y-118892000D01*
X149606000Y-120396000D01*
X149098000Y-120396000D01*
X149098000Y-118892000D01*
X148053402Y-118892000D01*
X147992906Y-118898505D01*
X147856035Y-118949555D01*
X147856034Y-118949555D01*
X147739095Y-119037095D01*
X147651555Y-119154034D01*
X147651555Y-119154035D01*
X147600505Y-119290906D01*
X147594000Y-119351402D01*
X147268507Y-119351402D01*
X147276500Y-119280465D01*
X147276500Y-118971535D01*
X147274023Y-118949555D01*
X147250925Y-118744548D01*
X147241911Y-118664548D01*
X147173168Y-118363364D01*
X147168649Y-118350450D01*
X147071141Y-118071788D01*
X147071140Y-118071787D01*
X147071135Y-118071771D01*
X146937095Y-117793435D01*
X146772735Y-117531857D01*
X146580120Y-117290326D01*
X146580117Y-117290322D01*
X146361677Y-117071882D01*
X146120143Y-116879265D01*
X145858569Y-116714907D01*
X145858560Y-116714902D01*
X145580238Y-116580869D01*
X145580233Y-116580867D01*
X145580229Y-116580865D01*
X145580223Y-116580862D01*
X145580211Y-116580858D01*
X145288642Y-116478833D01*
X144987456Y-116410089D01*
X144680466Y-116375500D01*
X144680465Y-116375500D01*
X144371535Y-116375500D01*
X144371534Y-116375500D01*
X144064543Y-116410089D01*
X143763357Y-116478833D01*
X143471788Y-116580858D01*
X143471761Y-116580869D01*
X143193439Y-116714902D01*
X143193430Y-116714907D01*
X142931856Y-116879265D01*
X142690322Y-117071882D01*
X142471882Y-117290322D01*
X142279265Y-117531856D01*
X142114907Y-117793430D01*
X142114902Y-117793439D01*
X141980869Y-118071761D01*
X141980858Y-118071788D01*
X141878833Y-118363357D01*
X141827192Y-118589611D01*
X141792533Y-118651573D01*
X141729876Y-118684960D01*
X141659116Y-118679173D01*
X141624727Y-118659226D01*
X141503407Y-118560302D01*
X141503405Y-118560301D01*
X141503404Y-118560300D01*
X141323051Y-118466092D01*
X141323050Y-118466091D01*
X141323049Y-118466091D01*
X141127418Y-118410114D01*
X141008037Y-118399500D01*
X141008032Y-118399500D01*
X138391972Y-118399500D01*
X138391962Y-118399501D01*
X138272588Y-118410113D01*
X138272585Y-118410113D01*
X138272582Y-118410114D01*
X138076951Y-118466091D01*
X138076948Y-118466092D01*
X137896595Y-118560300D01*
X137738891Y-118688891D01*
X137610300Y-118846595D01*
X137516090Y-119026950D01*
X137516089Y-119026955D01*
X137502910Y-119073013D01*
X137464940Y-119133002D01*
X137400564Y-119162941D01*
X137362062Y-119162799D01*
X137338330Y-119159040D01*
X137278092Y-119149500D01*
X137041908Y-119149500D01*
X136847778Y-119180247D01*
X136808626Y-119186448D01*
X136635435Y-119242722D01*
X136564468Y-119244750D01*
X136503670Y-119208087D01*
X136472344Y-119144375D01*
X136470499Y-119122889D01*
X136470499Y-117826164D01*
X136490501Y-117758043D01*
X136507404Y-117737069D01*
X138657069Y-115587405D01*
X138719381Y-115553379D01*
X138746164Y-115550500D01*
X141760583Y-115550500D01*
X141957417Y-115550500D01*
X150005344Y-115550500D01*
X150073465Y-115570502D01*
X150119958Y-115624158D01*
X150127523Y-115645708D01*
X150137187Y-115684057D01*
X150144904Y-115714682D01*
X150144906Y-115714688D01*
X150237991Y-115919624D01*
X150237997Y-115919632D01*
X150366178Y-116104651D01*
X150366182Y-116104656D01*
X150525343Y-116263817D01*
X150525348Y-116263821D01*
X150710367Y-116392002D01*
X150710375Y-116392008D01*
X150846699Y-116453928D01*
X150915317Y-116485096D01*
X151133588Y-116540096D01*
X151265783Y-116550500D01*
X155294216Y-116550499D01*
X155426412Y-116540096D01*
X155644683Y-116485096D01*
X155849626Y-116392007D01*
X156034654Y-116263819D01*
X156193819Y-116104654D01*
X156322007Y-115919626D01*
X156415096Y-115714683D01*
X156470096Y-115496412D01*
X156480500Y-115364217D01*
X156480499Y-113235784D01*
X156480499Y-113235783D01*
X158479500Y-113235783D01*
X158479500Y-113235785D01*
X158479500Y-115364213D01*
X158484985Y-115433904D01*
X158489904Y-115496412D01*
X158489904Y-115496415D01*
X158489905Y-115496416D01*
X158544903Y-115714679D01*
X158544906Y-115714688D01*
X158637991Y-115919624D01*
X158637997Y-115919632D01*
X158766178Y-116104651D01*
X158766182Y-116104656D01*
X158925343Y-116263817D01*
X158925348Y-116263821D01*
X159110367Y-116392002D01*
X159110375Y-116392008D01*
X159246699Y-116453928D01*
X159315317Y-116485096D01*
X159533588Y-116540096D01*
X159665783Y-116550500D01*
X163694216Y-116550499D01*
X163826412Y-116540096D01*
X164044683Y-116485096D01*
X164249626Y-116392007D01*
X164434654Y-116263819D01*
X164593819Y-116104654D01*
X164722007Y-115919626D01*
X164815096Y-115714683D01*
X164870096Y-115496412D01*
X164880500Y-115364217D01*
X164880499Y-113235784D01*
X164870096Y-113103588D01*
X164815096Y-112885317D01*
X164783928Y-112816699D01*
X164722008Y-112680375D01*
X164722002Y-112680367D01*
X164593821Y-112495348D01*
X164593817Y-112495343D01*
X164434656Y-112336182D01*
X164434651Y-112336178D01*
X164249632Y-112207997D01*
X164249624Y-112207991D01*
X164044681Y-112114903D01*
X164037705Y-112113145D01*
X163976539Y-112077100D01*
X163944570Y-112013709D01*
X163942500Y-111990966D01*
X163942500Y-105500499D01*
X163962502Y-105432378D01*
X164016158Y-105385885D01*
X164068500Y-105374499D01*
X164456213Y-105374499D01*
X164456216Y-105374499D01*
X164588412Y-105364096D01*
X164806683Y-105309096D01*
X165011626Y-105216007D01*
X165196654Y-105087819D01*
X165355819Y-104928654D01*
X165484007Y-104743626D01*
X165577096Y-104538683D01*
X165632096Y-104320412D01*
X165642500Y-104188217D01*
X165642499Y-102059784D01*
X165632096Y-101927588D01*
X165577096Y-101709317D01*
X165502119Y-101544248D01*
X165484008Y-101504375D01*
X165484002Y-101504367D01*
X165483342Y-101503415D01*
X165400637Y-101384037D01*
X165355821Y-101319348D01*
X165355817Y-101319343D01*
X165196656Y-101160182D01*
X165196651Y-101160178D01*
X165011632Y-101031997D01*
X165011624Y-101031991D01*
X164806688Y-100938906D01*
X164806685Y-100938905D01*
X164806683Y-100938904D01*
X164588412Y-100883904D01*
X164456217Y-100873500D01*
X164456214Y-100873500D01*
X160427786Y-100873500D01*
X160350915Y-100879550D01*
X160295588Y-100883904D01*
X160295584Y-100883904D01*
X160295583Y-100883905D01*
X160077320Y-100938903D01*
X160077311Y-100938906D01*
X159872375Y-101031991D01*
X159872367Y-101031997D01*
X159687348Y-101160178D01*
X159687343Y-101160182D01*
X159528182Y-101319343D01*
X159528178Y-101319348D01*
X159399997Y-101504367D01*
X159399991Y-101504375D01*
X159306906Y-101709311D01*
X159306904Y-101709317D01*
X159251904Y-101927588D01*
X159241500Y-102059783D01*
X159241500Y-102059785D01*
X159241500Y-104188213D01*
X159245634Y-104240741D01*
X159251904Y-104320412D01*
X159251904Y-104320415D01*
X159251905Y-104320416D01*
X159306903Y-104538679D01*
X159306906Y-104538688D01*
X159399991Y-104743624D01*
X159399997Y-104743632D01*
X159528178Y-104928651D01*
X159528182Y-104928656D01*
X159687343Y-105087817D01*
X159687348Y-105087821D01*
X159792045Y-105160355D01*
X159870744Y-105214878D01*
X159872367Y-105216002D01*
X159872375Y-105216008D01*
X159952901Y-105252584D01*
X160077317Y-105309096D01*
X160295588Y-105364096D01*
X160427783Y-105374500D01*
X160815500Y-105374499D01*
X160883620Y-105394501D01*
X160930113Y-105448156D01*
X160941500Y-105500499D01*
X160941500Y-111923500D01*
X160921498Y-111991621D01*
X160867842Y-112038114D01*
X160815500Y-112049500D01*
X159665786Y-112049500D01*
X159588915Y-112055550D01*
X159533588Y-112059904D01*
X159533584Y-112059904D01*
X159533583Y-112059905D01*
X159315320Y-112114903D01*
X159315311Y-112114906D01*
X159110375Y-112207991D01*
X159110367Y-112207997D01*
X158925348Y-112336178D01*
X158925343Y-112336182D01*
X158766182Y-112495343D01*
X158766178Y-112495348D01*
X158637997Y-112680367D01*
X158637991Y-112680375D01*
X158544906Y-112885311D01*
X158544904Y-112885317D01*
X158489904Y-113103588D01*
X158479500Y-113235783D01*
X156480499Y-113235783D01*
X156470096Y-113103588D01*
X156415096Y-112885317D01*
X156383928Y-112816699D01*
X156322008Y-112680375D01*
X156322002Y-112680367D01*
X156193821Y-112495348D01*
X156193817Y-112495343D01*
X156034656Y-112336182D01*
X156034651Y-112336178D01*
X155849632Y-112207997D01*
X155849624Y-112207991D01*
X155644688Y-112114906D01*
X155644685Y-112114905D01*
X155644683Y-112114904D01*
X155426412Y-112059904D01*
X155294217Y-112049500D01*
X155294215Y-112049500D01*
X154556500Y-112049500D01*
X154488379Y-112029498D01*
X154441886Y-111975842D01*
X154430500Y-111923500D01*
X154430500Y-111211764D01*
X154430501Y-111211739D01*
X154430501Y-111025457D01*
X154430501Y-111025454D01*
X154402172Y-110846591D01*
X154356332Y-110705510D01*
X154346212Y-110674364D01*
X154346211Y-110674363D01*
X154346211Y-110674361D01*
X154263996Y-110513006D01*
X154227014Y-110462105D01*
X154157553Y-110366499D01*
X154157552Y-110366497D01*
X154025846Y-110234791D01*
X154025806Y-110234754D01*
X153534720Y-109743667D01*
X153534694Y-109743639D01*
X153403506Y-109612451D01*
X153403503Y-109612449D01*
X153403501Y-109612447D01*
X153293216Y-109532321D01*
X153256997Y-109506006D01*
X153256996Y-109506005D01*
X153256994Y-109506004D01*
X153095639Y-109423789D01*
X153095636Y-109423788D01*
X153095634Y-109423787D01*
X152923413Y-109367830D01*
X152923411Y-109367829D01*
X152923409Y-109367829D01*
X152744546Y-109339499D01*
X152563454Y-109339499D01*
X152558261Y-109339499D01*
X152558237Y-109339500D01*
X151898500Y-109339500D01*
X151830379Y-109319498D01*
X151783886Y-109265842D01*
X151772500Y-109213500D01*
X151772500Y-107791763D01*
X151772501Y-107791738D01*
X151772501Y-107605456D01*
X151766281Y-107566186D01*
X151744171Y-107426591D01*
X151688211Y-107254361D01*
X151672938Y-107224388D01*
X151659835Y-107154612D01*
X151686535Y-107088827D01*
X151689403Y-107085346D01*
X151690228Y-107084378D01*
X151690242Y-107084365D01*
X151819815Y-106906022D01*
X151919895Y-106709606D01*
X151988015Y-106499951D01*
X152022500Y-106282222D01*
X152022500Y-106061778D01*
X151988015Y-105844049D01*
X151919895Y-105634394D01*
X151879575Y-105555263D01*
X151866471Y-105485488D01*
X151893171Y-105419703D01*
X151951198Y-105378796D01*
X152001729Y-105372450D01*
X152019990Y-105373886D01*
X152027783Y-105374500D01*
X156056216Y-105374499D01*
X156188412Y-105364096D01*
X156406683Y-105309096D01*
X156611626Y-105216007D01*
X156796654Y-105087819D01*
X156955819Y-104928654D01*
X157084007Y-104743626D01*
X157177096Y-104538683D01*
X157232096Y-104320412D01*
X157242500Y-104188217D01*
X157242499Y-102059784D01*
X157232096Y-101927588D01*
X157177096Y-101709317D01*
X157102119Y-101544248D01*
X157084008Y-101504375D01*
X157084002Y-101504367D01*
X157083342Y-101503415D01*
X157000637Y-101384037D01*
X156955821Y-101319348D01*
X156955817Y-101319343D01*
X156796656Y-101160182D01*
X156796651Y-101160178D01*
X156611632Y-101031997D01*
X156611624Y-101031991D01*
X156406688Y-100938906D01*
X156406685Y-100938905D01*
X156406683Y-100938904D01*
X156188412Y-100883904D01*
X156056217Y-100873500D01*
X156056215Y-100873500D01*
X155550500Y-100873500D01*
X155482379Y-100853498D01*
X155435886Y-100799842D01*
X155424500Y-100747500D01*
X155424500Y-99703911D01*
X155424500Y-99703908D01*
X155387553Y-99470632D01*
X155314568Y-99246008D01*
X155207343Y-99035567D01*
X155100654Y-98888723D01*
X155068515Y-98844487D01*
X154901512Y-98677484D01*
X154710436Y-98538659D01*
X154710435Y-98538658D01*
X154710433Y-98538657D01*
X154499992Y-98431432D01*
X154275368Y-98358447D01*
X154042092Y-98321500D01*
X153805908Y-98321500D01*
X153572632Y-98358447D01*
X153572629Y-98358447D01*
X153572628Y-98358448D01*
X153348008Y-98431432D01*
X153348006Y-98431433D01*
X153137563Y-98538659D01*
X152946487Y-98677484D01*
X152779484Y-98844487D01*
X152640659Y-99035563D01*
X152640657Y-99035567D01*
X152533432Y-99246008D01*
X152460447Y-99470632D01*
X152446473Y-99558865D01*
X152423500Y-99703911D01*
X152423500Y-100747500D01*
X152403498Y-100815621D01*
X152349842Y-100862114D01*
X152297500Y-100873500D01*
X152027785Y-100873500D01*
X151895585Y-100883904D01*
X151888258Y-100885750D01*
X151817315Y-100882996D01*
X151759123Y-100842324D01*
X151737644Y-100802503D01*
X151688211Y-100650361D01*
X151605996Y-100489006D01*
X151605994Y-100489003D01*
X151605992Y-100488999D01*
X151597569Y-100477407D01*
X151597567Y-100477405D01*
X151534422Y-100390493D01*
X151499552Y-100342497D01*
X151368355Y-100211300D01*
X151368324Y-100211271D01*
X150553963Y-99396910D01*
X150553943Y-99396888D01*
X150421506Y-99264451D01*
X150421503Y-99264449D01*
X150421501Y-99264447D01*
X150293954Y-99171779D01*
X150274997Y-99158006D01*
X150274996Y-99158005D01*
X150274994Y-99158004D01*
X150113639Y-99075789D01*
X150113636Y-99075788D01*
X150113634Y-99075787D01*
X149941413Y-99019830D01*
X149941411Y-99019829D01*
X149941409Y-99019829D01*
X149762546Y-98991499D01*
X149581454Y-98991499D01*
X149576261Y-98991499D01*
X149576237Y-98991500D01*
X147474688Y-98991500D01*
X147406567Y-98971498D01*
X147360074Y-98917842D01*
X147349970Y-98847568D01*
X147379464Y-98782988D01*
X147439190Y-98744604D01*
X147458082Y-98740598D01*
X147932629Y-98677525D01*
X148034989Y-98665229D01*
X148081967Y-98657675D01*
X148319874Y-98626055D01*
X148934200Y-98520668D01*
X148935321Y-98520482D01*
X149015660Y-98507566D01*
X149042590Y-98502127D01*
X149046096Y-98501473D01*
X149247411Y-98466938D01*
X149247410Y-98466938D01*
X149247417Y-98466937D01*
X149415937Y-98431432D01*
X149952946Y-98318292D01*
X149989271Y-98310957D01*
X149998865Y-98308617D01*
X150092528Y-98288884D01*
X150168270Y-98272927D01*
X150169604Y-98272593D01*
X151081174Y-98044290D01*
X151694411Y-97865853D01*
X151984765Y-97781368D01*
X151984769Y-97781366D01*
X151984785Y-97781362D01*
X152877828Y-97484514D01*
X153316853Y-97319907D01*
X153320131Y-97318730D01*
X153901588Y-97119069D01*
X153904985Y-97117958D01*
X154033919Y-97077873D01*
X154037011Y-97076958D01*
X154562673Y-96929132D01*
X154566253Y-96928184D01*
X154696490Y-96895793D01*
X154699536Y-96895078D01*
X155233678Y-96777031D01*
X155237480Y-96776253D01*
X155368049Y-96751669D01*
X155370865Y-96751175D01*
X155912481Y-96663281D01*
X155916437Y-96662705D01*
X156046151Y-96645952D01*
X156049094Y-96645607D01*
X156596883Y-96588294D01*
X156600943Y-96587938D01*
X156728842Y-96578870D01*
X156731622Y-96578705D01*
X157284496Y-96552357D01*
X157288739Y-96552228D01*
X157413807Y-96550586D01*
X157416397Y-96550581D01*
X157973291Y-96555600D01*
G37*
%TD.AperFunction*%
%TA.AperFunction,Conductor*%
G36*
X147876762Y-102479807D02*
G01*
X147903433Y-102486081D01*
X147995908Y-102492500D01*
X148583500Y-102492500D01*
X148651621Y-102512502D01*
X148698114Y-102566158D01*
X148709500Y-102618500D01*
X148709500Y-103121500D01*
X148689498Y-103189621D01*
X148635842Y-103236114D01*
X148583500Y-103247500D01*
X147995906Y-103247500D01*
X147903432Y-103253919D01*
X147903426Y-103253920D01*
X147686865Y-103304854D01*
X147686856Y-103304857D01*
X147483328Y-103394723D01*
X147483326Y-103394724D01*
X147456014Y-103413433D01*
X147429737Y-103421994D01*
X147404794Y-103433887D01*
X147396479Y-103432831D01*
X147388510Y-103435428D01*
X147361776Y-103428424D01*
X147334363Y-103424943D01*
X147327938Y-103419559D01*
X147319831Y-103417435D01*
X147301128Y-103397090D01*
X147279949Y-103379341D01*
X147274710Y-103368353D01*
X147271782Y-103365168D01*
X147264515Y-103346969D01*
X147259955Y-103332336D01*
X147258784Y-103261349D01*
X147296178Y-103200998D01*
X147309036Y-103190904D01*
X147340221Y-103169542D01*
X147497542Y-103012221D01*
X147623277Y-102828671D01*
X147713143Y-102625143D01*
X147725262Y-102573613D01*
X147760327Y-102511883D01*
X147823201Y-102478908D01*
X147876762Y-102479807D01*
G37*
%TD.AperFunction*%
%TD*%
M02*
