%TF.GenerationSoftware,KiCad,Pcbnew,(6.0.1)*%
%TF.CreationDate,2022-02-14T16:30:39+01:00*%
%TF.ProjectId,Gleichrichter_Fernlicht,476c6569-6368-4726-9963-687465725f46,rev?*%
%TF.SameCoordinates,Original*%
%TF.FileFunction,Copper,L1,Top*%
%TF.FilePolarity,Positive*%
%FSLAX46Y46*%
G04 Gerber Fmt 4.6, Leading zero omitted, Abs format (unit mm)*
G04 Created by KiCad (PCBNEW (6.0.1)) date 2022-02-14 16:30:39*
%MOMM*%
%LPD*%
G01*
G04 APERTURE LIST*
%TA.AperFunction,SMDPad,CuDef*%
%ADD10R,2.500000X2.500000*%
%TD*%
%TA.AperFunction,ViaPad*%
%ADD11C,1.000000*%
%TD*%
%TA.AperFunction,Conductor*%
%ADD12C,1.000000*%
%TD*%
%TA.AperFunction,Conductor*%
%ADD13C,0.500000*%
%TD*%
%TA.AperFunction,Conductor*%
%ADD14C,0.250000*%
%TD*%
G04 APERTURE END LIST*
D10*
%TO.P,TP6,1,1*%
%TO.N,DC-*%
X149352000Y-120650000D03*
%TD*%
%TO.P,TP7,1,1*%
%TO.N,DC+*%
X139700000Y-120650000D03*
%TD*%
%TO.P,TP5,1,1*%
%TO.N,DYN_1*%
X135128000Y-100076000D03*
%TD*%
%TO.P,TP8,1,1*%
%TO.N,DYN_2*%
X135128000Y-106680000D03*
%TD*%
D11*
%TO.N,DYN_1*%
X135128000Y-102870000D03*
X153924000Y-99822000D03*
%TO.N,Net-(C2-Pad2)*%
X149836000Y-107720000D03*
X153280000Y-110880000D03*
X150876000Y-101092000D03*
%TO.N,DYN_2*%
X135128000Y-109728000D03*
%TO.N,DC-*%
X144804000Y-107950000D03*
X149352000Y-117348000D03*
%TO.N,DC+*%
X142240000Y-101600000D03*
X142240000Y-114300000D03*
X137160000Y-120650000D03*
%TD*%
D12*
%TO.N,DYN_1*%
X135382000Y-99822000D02*
X135128000Y-100076000D01*
X153924000Y-99822000D02*
X135382000Y-99822000D01*
X135128000Y-100076000D02*
X135128000Y-102870000D01*
D13*
%TO.N,Net-(C2-Pad2)*%
X149836000Y-107720000D02*
X150876000Y-106680000D01*
X150120000Y-107720000D02*
X153280000Y-110880000D01*
X150876000Y-106680000D02*
X150876000Y-101092000D01*
D14*
X149836000Y-107720000D02*
X150120000Y-107720000D01*
D12*
%TO.N,DYN_2*%
X135128000Y-109728000D02*
X135128000Y-106680000D01*
%TO.N,DC-*%
X149352000Y-112498000D02*
X144804000Y-107950000D01*
X149352000Y-120650000D02*
X149352000Y-112498000D01*
%TO.N,DC+*%
X137160000Y-120650000D02*
X139700000Y-120650000D01*
D13*
X142240000Y-114300000D02*
X139700000Y-116840000D01*
X139700000Y-116840000D02*
X139700000Y-120650000D01*
D12*
X142240000Y-101600000D02*
X142240000Y-114300000D01*
%TD*%
%TA.AperFunction,Conductor*%
%TO.N,DC-*%
G36*
X157810567Y-97554490D02*
G01*
X158143714Y-97562035D01*
X158151080Y-97562418D01*
X158558435Y-97595639D01*
X158793337Y-97614796D01*
X158800690Y-97615614D01*
X159438733Y-97705592D01*
X159446025Y-97706839D01*
X160077724Y-97834118D01*
X160084930Y-97835792D01*
X160708072Y-97999929D01*
X160715129Y-98002011D01*
X161079847Y-98121371D01*
X161327549Y-98202436D01*
X161334510Y-98204942D01*
X161934116Y-98440967D01*
X161940918Y-98443878D01*
X162160055Y-98545371D01*
X162397772Y-98655469D01*
X162525627Y-98714685D01*
X162532240Y-98717987D01*
X163100059Y-99022652D01*
X163106458Y-99026331D01*
X163251108Y-99115253D01*
X163655406Y-99363792D01*
X163661593Y-99367850D01*
X164189794Y-99736953D01*
X164195731Y-99741367D01*
X164424428Y-99922048D01*
X164700528Y-100140180D01*
X164701348Y-100140828D01*
X164707011Y-100145579D01*
X165188326Y-100574042D01*
X165193684Y-100579100D01*
X165601541Y-100987527D01*
X165649016Y-101035068D01*
X165654083Y-101040448D01*
X166025471Y-101458824D01*
X166081871Y-101522360D01*
X166086612Y-101528028D01*
X166425995Y-101958836D01*
X166485373Y-102034209D01*
X166489778Y-102040151D01*
X166653635Y-102275336D01*
X166858140Y-102568864D01*
X166862187Y-102575053D01*
X167198879Y-103124469D01*
X167202557Y-103130886D01*
X167338395Y-103384904D01*
X167506423Y-103699118D01*
X167509719Y-103705742D01*
X167779712Y-104290836D01*
X167782613Y-104297642D01*
X167832107Y-104423895D01*
X168009501Y-104876404D01*
X168017793Y-104897557D01*
X168020290Y-104904521D01*
X168219857Y-105517216D01*
X168221941Y-105524315D01*
X168385206Y-106147678D01*
X168386867Y-106154878D01*
X168474724Y-106594083D01*
X168513260Y-106786731D01*
X168514498Y-106794026D01*
X168603589Y-107432224D01*
X168604396Y-107439578D01*
X168655873Y-108081877D01*
X168656248Y-108089266D01*
X168669938Y-108733508D01*
X168669878Y-108740906D01*
X168645733Y-109384845D01*
X168645238Y-109392227D01*
X168627814Y-109572778D01*
X168583893Y-110027900D01*
X168583343Y-110033597D01*
X168582418Y-110040928D01*
X168483303Y-110675532D01*
X168482978Y-110677611D01*
X168481625Y-110684870D01*
X168351834Y-111283060D01*
X168344991Y-111314599D01*
X168343212Y-111321776D01*
X168311791Y-111434264D01*
X168169850Y-111942409D01*
X168167651Y-111949473D01*
X167958165Y-112558848D01*
X167955555Y-112565771D01*
X167710670Y-113161787D01*
X167707659Y-113168545D01*
X167428206Y-113749176D01*
X167424803Y-113755746D01*
X167111749Y-114318980D01*
X167107966Y-114325338D01*
X166762410Y-114869201D01*
X166758261Y-114875327D01*
X166467390Y-115278697D01*
X166381359Y-115398001D01*
X166376862Y-115403866D01*
X166236305Y-115576449D01*
X165969938Y-115903508D01*
X165965110Y-115909093D01*
X165529555Y-116383998D01*
X165524413Y-116389285D01*
X165061732Y-116837810D01*
X165056271Y-116842801D01*
X164568076Y-117263385D01*
X164562331Y-117268047D01*
X164050315Y-117659235D01*
X164044311Y-117663550D01*
X163632061Y-117941779D01*
X163510175Y-118024040D01*
X163503923Y-118027997D01*
X162949573Y-118356502D01*
X162943100Y-118360085D01*
X162370425Y-118655486D01*
X162363754Y-118658682D01*
X161774711Y-118919970D01*
X161767899Y-118922756D01*
X161211271Y-119131494D01*
X161194225Y-119136547D01*
X161172946Y-119141251D01*
X161172882Y-119141279D01*
X161172810Y-119141295D01*
X161134491Y-119158095D01*
X161131941Y-119159213D01*
X161120496Y-119163580D01*
X159861527Y-119575109D01*
X159858318Y-119576111D01*
X158549343Y-119965657D01*
X158546109Y-119966572D01*
X157227299Y-120321039D01*
X157224042Y-120321869D01*
X155896112Y-120641062D01*
X155892833Y-120641803D01*
X155400366Y-120746364D01*
X154556987Y-120925432D01*
X154553722Y-120926081D01*
X153210667Y-121173997D01*
X153207400Y-121174555D01*
X152283807Y-121319681D01*
X151858233Y-121386552D01*
X151854905Y-121387029D01*
X151252231Y-121465318D01*
X151182102Y-121454258D01*
X151129084Y-121407039D01*
X151110000Y-121340368D01*
X151110000Y-120922115D01*
X151105525Y-120906876D01*
X151104135Y-120905671D01*
X151096452Y-120904000D01*
X149224000Y-120904000D01*
X149155879Y-120883998D01*
X149109386Y-120830342D01*
X149098000Y-120778000D01*
X149098000Y-120377885D01*
X149606000Y-120377885D01*
X149610475Y-120393124D01*
X149611865Y-120394329D01*
X149619548Y-120396000D01*
X151091884Y-120396000D01*
X151107123Y-120391525D01*
X151108328Y-120390135D01*
X151109999Y-120382452D01*
X151109999Y-119355331D01*
X151109629Y-119348510D01*
X151104105Y-119297648D01*
X151100479Y-119282396D01*
X151055324Y-119161946D01*
X151046786Y-119146351D01*
X150970285Y-119044276D01*
X150957724Y-119031715D01*
X150855649Y-118955214D01*
X150840054Y-118946676D01*
X150719606Y-118901522D01*
X150704351Y-118897895D01*
X150653486Y-118892369D01*
X150646672Y-118892000D01*
X149624115Y-118892000D01*
X149608876Y-118896475D01*
X149607671Y-118897865D01*
X149606000Y-118905548D01*
X149606000Y-120377885D01*
X149098000Y-120377885D01*
X149098000Y-118910116D01*
X149093525Y-118894877D01*
X149092135Y-118893672D01*
X149084452Y-118892001D01*
X148135319Y-118892001D01*
X148067198Y-118871999D01*
X148020705Y-118818343D01*
X148009716Y-118775997D01*
X148000939Y-118665710D01*
X148000674Y-118662379D01*
X147982737Y-118566993D01*
X147932352Y-118299055D01*
X147932350Y-118299047D01*
X147931734Y-118295771D01*
X147824227Y-117938565D01*
X147679371Y-117594805D01*
X147677752Y-117591878D01*
X147677748Y-117591870D01*
X147500429Y-117271320D01*
X147500425Y-117271314D01*
X147498805Y-117268385D01*
X147496878Y-117265638D01*
X147286511Y-116965758D01*
X147286509Y-116965755D01*
X147284576Y-116963000D01*
X147039107Y-116682110D01*
X146765180Y-116428894D01*
X146711944Y-116389285D01*
X146468595Y-116208229D01*
X146468594Y-116208228D01*
X146465896Y-116206221D01*
X146463010Y-116204517D01*
X146463003Y-116204513D01*
X146147536Y-116018318D01*
X146147531Y-116018316D01*
X146144645Y-116016612D01*
X145959439Y-115932404D01*
X145808111Y-115863599D01*
X145808105Y-115863597D01*
X145805064Y-115862214D01*
X145801891Y-115861161D01*
X145801887Y-115861160D01*
X145700562Y-115827552D01*
X145450999Y-115744775D01*
X145447739Y-115744067D01*
X145447731Y-115744065D01*
X145196898Y-115689604D01*
X145086458Y-115665625D01*
X144715572Y-115625662D01*
X144713047Y-115625594D01*
X144713037Y-115625593D01*
X144711284Y-115625546D01*
X144709586Y-115625500D01*
X144432761Y-115625500D01*
X144431095Y-115625589D01*
X144431086Y-115625589D01*
X144156827Y-115640202D01*
X144156818Y-115640203D01*
X144153495Y-115640380D01*
X143914587Y-115678861D01*
X143788510Y-115699168D01*
X143788507Y-115699169D01*
X143785208Y-115699700D01*
X143781978Y-115700580D01*
X143781976Y-115700581D01*
X143507967Y-115775284D01*
X143425309Y-115797819D01*
X143077876Y-115933628D01*
X143074894Y-115935177D01*
X142751402Y-116103218D01*
X142746841Y-116105587D01*
X142719922Y-116123438D01*
X142450792Y-116301909D01*
X142435953Y-116311749D01*
X142433377Y-116313884D01*
X142151317Y-116547638D01*
X142151311Y-116547643D01*
X142148733Y-116549780D01*
X142146389Y-116552187D01*
X142146386Y-116552189D01*
X141890773Y-116814583D01*
X141890765Y-116814592D01*
X141888434Y-116816985D01*
X141658002Y-117110337D01*
X141460049Y-117426515D01*
X141296814Y-117761938D01*
X141295681Y-117765077D01*
X141295677Y-117765086D01*
X141195014Y-118043926D01*
X141153069Y-118101208D01*
X141086814Y-118126719D01*
X141017285Y-118112361D01*
X140966556Y-118062691D01*
X140950500Y-118001142D01*
X140950500Y-117410164D01*
X140970502Y-117342043D01*
X140987405Y-117321069D01*
X142505853Y-115802621D01*
X142558737Y-115771032D01*
X142562269Y-115769973D01*
X142579405Y-115766110D01*
X142588930Y-115764653D01*
X142646525Y-115745828D01*
X142687290Y-115732504D01*
X142690228Y-115731583D01*
X142784422Y-115703324D01*
X142784426Y-115703323D01*
X142789374Y-115701838D01*
X142798020Y-115697602D01*
X142814313Y-115690987D01*
X142818545Y-115689604D01*
X142818552Y-115689601D01*
X142823460Y-115687997D01*
X142915301Y-115640188D01*
X142917939Y-115638855D01*
X143010954Y-115593287D01*
X143015169Y-115590281D01*
X143018798Y-115587693D01*
X143033779Y-115578512D01*
X143042321Y-115574065D01*
X143125111Y-115511905D01*
X143127595Y-115510088D01*
X143207618Y-115453008D01*
X143207620Y-115453006D01*
X143211829Y-115450004D01*
X143218647Y-115443210D01*
X143231931Y-115431703D01*
X143235494Y-115429028D01*
X143235501Y-115429022D01*
X143239636Y-115425917D01*
X143311163Y-115351068D01*
X143313255Y-115348932D01*
X143348544Y-115313766D01*
X143382943Y-115279487D01*
X143382947Y-115279482D01*
X143386605Y-115275837D01*
X143392227Y-115268013D01*
X143403452Y-115254493D01*
X143406532Y-115251270D01*
X143410104Y-115247532D01*
X143468438Y-115162017D01*
X143470200Y-115159501D01*
X143527567Y-115079667D01*
X143530588Y-115075463D01*
X143532879Y-115070827D01*
X143532884Y-115070819D01*
X143534853Y-115066834D01*
X143543724Y-115051653D01*
X143546235Y-115047972D01*
X143546236Y-115047970D01*
X143549149Y-115043700D01*
X143592749Y-114949771D01*
X143594036Y-114947084D01*
X143639911Y-114854264D01*
X143642712Y-114845045D01*
X143648981Y-114828630D01*
X143650854Y-114824594D01*
X143653035Y-114819896D01*
X143654418Y-114814910D01*
X143654420Y-114814904D01*
X143680690Y-114720177D01*
X143681549Y-114717220D01*
X143710136Y-114623129D01*
X143710137Y-114623122D01*
X143711639Y-114618180D01*
X143712896Y-114608636D01*
X143716401Y-114591406D01*
X143718974Y-114582129D01*
X143729976Y-114479179D01*
X143730341Y-114476121D01*
X143743408Y-114376869D01*
X143743845Y-114373550D01*
X143745643Y-114300000D01*
X143740924Y-114242602D01*
X143740500Y-114232278D01*
X143740500Y-101707216D01*
X143741578Y-101690770D01*
X143743408Y-101676872D01*
X143743408Y-101676866D01*
X143743845Y-101673550D01*
X143745643Y-101600000D01*
X143734036Y-101458824D01*
X143748389Y-101389294D01*
X143798054Y-101338561D01*
X143859612Y-101322500D01*
X149288968Y-101322500D01*
X149357089Y-101342502D01*
X149403582Y-101396158D01*
X149411884Y-101420797D01*
X149439255Y-101542249D01*
X149532084Y-101770861D01*
X149534789Y-101775276D01*
X149534790Y-101775277D01*
X149606932Y-101893001D01*
X149625500Y-101958836D01*
X149625500Y-106109836D01*
X149605498Y-106177957D01*
X149588595Y-106198931D01*
X149569536Y-106217990D01*
X149507224Y-106252016D01*
X149499499Y-106253445D01*
X149492184Y-106254564D01*
X149492179Y-106254565D01*
X149487070Y-106255347D01*
X149252540Y-106332003D01*
X149033679Y-106445935D01*
X149029546Y-106449038D01*
X149029543Y-106449040D01*
X148840499Y-106590978D01*
X148836364Y-106594083D01*
X148665896Y-106772468D01*
X148526851Y-106976300D01*
X148474908Y-107088202D01*
X148457995Y-107124639D01*
X148422965Y-107200104D01*
X148357026Y-107437871D01*
X148330806Y-107683214D01*
X148331103Y-107688366D01*
X148331103Y-107688370D01*
X148342604Y-107887827D01*
X148345010Y-107929545D01*
X148346147Y-107934591D01*
X148346148Y-107934597D01*
X148380174Y-108085578D01*
X148399255Y-108170249D01*
X148492084Y-108398861D01*
X148494789Y-108403276D01*
X148494790Y-108403277D01*
X148540545Y-108477942D01*
X148621006Y-108609241D01*
X148782557Y-108795741D01*
X148972399Y-108953351D01*
X149185433Y-109077838D01*
X149190253Y-109079678D01*
X149190258Y-109079681D01*
X149342947Y-109137986D01*
X149415939Y-109165859D01*
X149421007Y-109166890D01*
X149421010Y-109166891D01*
X149540587Y-109191219D01*
X149657726Y-109215052D01*
X149662899Y-109215242D01*
X149662902Y-109215242D01*
X149773526Y-109219298D01*
X149804294Y-109220426D01*
X149871636Y-109242910D01*
X149888772Y-109257246D01*
X151782974Y-111151448D01*
X151816796Y-111212842D01*
X151828339Y-111264061D01*
X151843255Y-111330249D01*
X151936084Y-111558861D01*
X152065006Y-111769241D01*
X152226557Y-111955741D01*
X152230532Y-111959041D01*
X152230535Y-111959044D01*
X152294280Y-112011966D01*
X152416399Y-112113351D01*
X152629433Y-112237838D01*
X152634253Y-112239678D01*
X152634258Y-112239681D01*
X152748547Y-112283323D01*
X152859939Y-112325859D01*
X152865007Y-112326890D01*
X152865010Y-112326891D01*
X152984587Y-112351219D01*
X153101726Y-112375052D01*
X153106899Y-112375242D01*
X153106902Y-112375242D01*
X153343136Y-112383904D01*
X153343140Y-112383904D01*
X153348300Y-112384093D01*
X153353420Y-112383437D01*
X153353422Y-112383437D01*
X153429703Y-112373665D01*
X153593041Y-112352741D01*
X153597990Y-112351256D01*
X153597996Y-112351255D01*
X153824424Y-112283323D01*
X153824423Y-112283323D01*
X153829374Y-112281838D01*
X153933266Y-112230942D01*
X154046303Y-112175566D01*
X154046308Y-112175563D01*
X154050954Y-112173287D01*
X154055164Y-112170284D01*
X154055169Y-112170281D01*
X154247617Y-112033009D01*
X154247622Y-112033005D01*
X154251829Y-112030004D01*
X154426605Y-111855837D01*
X154570588Y-111655463D01*
X154679911Y-111434264D01*
X154713045Y-111325207D01*
X154750135Y-111203132D01*
X154750136Y-111203126D01*
X154751639Y-111198180D01*
X154776337Y-111010579D01*
X154783408Y-110956872D01*
X154783409Y-110956866D01*
X154783845Y-110953550D01*
X154784223Y-110938088D01*
X154785561Y-110883364D01*
X154785561Y-110883360D01*
X154785643Y-110880000D01*
X154772846Y-110724354D01*
X154765849Y-110639240D01*
X154765848Y-110639234D01*
X154765425Y-110634089D01*
X154705316Y-110394783D01*
X154606928Y-110168507D01*
X154472905Y-109961339D01*
X154306846Y-109778842D01*
X154302795Y-109775643D01*
X154302791Y-109775639D01*
X154117264Y-109629119D01*
X154117259Y-109629116D01*
X154113210Y-109625918D01*
X154108694Y-109623425D01*
X154108691Y-109623423D01*
X153901722Y-109509170D01*
X153901718Y-109509168D01*
X153897198Y-109506673D01*
X153892329Y-109504949D01*
X153892325Y-109504947D01*
X153669485Y-109426035D01*
X153669481Y-109426034D01*
X153664610Y-109424309D01*
X153616206Y-109415687D01*
X153549210Y-109380736D01*
X151833157Y-107664683D01*
X151799131Y-107602371D01*
X151804196Y-107531556D01*
X151829057Y-107490791D01*
X151876086Y-107439107D01*
X151885530Y-107424052D01*
X151895600Y-107410193D01*
X151903397Y-107400868D01*
X151903398Y-107400866D01*
X151906997Y-107396562D01*
X151948008Y-107324663D01*
X151950704Y-107320157D01*
X151994707Y-107250010D01*
X152001335Y-107233521D01*
X152008795Y-107218091D01*
X152014814Y-107207539D01*
X152014815Y-107207537D01*
X152017595Y-107202663D01*
X152045225Y-107124639D01*
X152047090Y-107119703D01*
X152075876Y-107048094D01*
X152077966Y-107042895D01*
X152079102Y-107037409D01*
X152079104Y-107037403D01*
X152081570Y-107025494D01*
X152086175Y-107008998D01*
X152092108Y-106992244D01*
X152105486Y-106910551D01*
X152106448Y-106905363D01*
X152122296Y-106828834D01*
X152123233Y-106824310D01*
X152124823Y-106796739D01*
X152126270Y-106783636D01*
X152127274Y-106777502D01*
X152127274Y-106777496D01*
X152128182Y-106771954D01*
X152126516Y-106665894D01*
X152126500Y-106663916D01*
X152126500Y-101963827D01*
X152150177Y-101890301D01*
X152163569Y-101871664D01*
X152166588Y-101867463D01*
X152275911Y-101646264D01*
X152347126Y-101411869D01*
X152386066Y-101352507D01*
X152450920Y-101323620D01*
X152467683Y-101322500D01*
X153892010Y-101322500D01*
X153896627Y-101322585D01*
X153987136Y-101325904D01*
X153987140Y-101325904D01*
X153992300Y-101326093D01*
X154078094Y-101315102D01*
X154083752Y-101314508D01*
X154169911Y-101307425D01*
X154174927Y-101306165D01*
X154174933Y-101306164D01*
X154195838Y-101300913D01*
X154210522Y-101298138D01*
X154221160Y-101296775D01*
X154237041Y-101294741D01*
X154264015Y-101286648D01*
X154319865Y-101269893D01*
X154325377Y-101268375D01*
X154404201Y-101248576D01*
X154404202Y-101248576D01*
X154409217Y-101247316D01*
X154433736Y-101236655D01*
X154447755Y-101231524D01*
X154473374Y-101223838D01*
X154478020Y-101221562D01*
X154551036Y-101185793D01*
X154556224Y-101183396D01*
X154589389Y-101168975D01*
X154635493Y-101148928D01*
X154657935Y-101134409D01*
X154670943Y-101127050D01*
X154690311Y-101117562D01*
X154690315Y-101117560D01*
X154694954Y-101115287D01*
X154765357Y-101065069D01*
X154770086Y-101061856D01*
X154838317Y-101017715D01*
X154842661Y-101014905D01*
X154862437Y-100996911D01*
X154874059Y-100987533D01*
X154895829Y-100972004D01*
X154957073Y-100910973D01*
X154961214Y-100907030D01*
X155021330Y-100852330D01*
X155021335Y-100852325D01*
X155025158Y-100848846D01*
X155028365Y-100844786D01*
X155028368Y-100844782D01*
X155041725Y-100827868D01*
X155051672Y-100816704D01*
X155066941Y-100801489D01*
X155066946Y-100801483D01*
X155070605Y-100797837D01*
X155121075Y-100727601D01*
X155124488Y-100723072D01*
X155174877Y-100659268D01*
X155178082Y-100655210D01*
X155191003Y-100631804D01*
X155198982Y-100619182D01*
X155214588Y-100597463D01*
X155252885Y-100519975D01*
X155255533Y-100514909D01*
X155294828Y-100443725D01*
X155297327Y-100439198D01*
X155306256Y-100413983D01*
X155312062Y-100400239D01*
X155323911Y-100376264D01*
X155349043Y-100293546D01*
X155350828Y-100288116D01*
X155377966Y-100211481D01*
X155379691Y-100206610D01*
X155384380Y-100180287D01*
X155387866Y-100165766D01*
X155395639Y-100140180D01*
X155406925Y-100054454D01*
X155407799Y-100048814D01*
X155422055Y-99968783D01*
X155422056Y-99968777D01*
X155422961Y-99963694D01*
X155423288Y-99936952D01*
X155424357Y-99922048D01*
X155427408Y-99898875D01*
X155427409Y-99898861D01*
X155427845Y-99895550D01*
X155429643Y-99822000D01*
X155429073Y-99815068D01*
X155425820Y-99775499D01*
X155425405Y-99763636D01*
X155425912Y-99722142D01*
X155425912Y-99722140D01*
X155425975Y-99716972D01*
X155415903Y-99651154D01*
X155414879Y-99642432D01*
X155409848Y-99581240D01*
X155409425Y-99576089D01*
X155398057Y-99530830D01*
X155395711Y-99519195D01*
X155389435Y-99478182D01*
X155388653Y-99473070D01*
X155367972Y-99409794D01*
X155365534Y-99401349D01*
X155362538Y-99389422D01*
X155349316Y-99336783D01*
X155330709Y-99293990D01*
X155326495Y-99282897D01*
X155313602Y-99243451D01*
X155311997Y-99238540D01*
X155309613Y-99233960D01*
X155309609Y-99233951D01*
X155281253Y-99179479D01*
X155277468Y-99171544D01*
X155250928Y-99110507D01*
X155225583Y-99071329D01*
X155219613Y-99061072D01*
X155200454Y-99024269D01*
X155198065Y-99019679D01*
X155158097Y-98966445D01*
X155153067Y-98959236D01*
X155119714Y-98907681D01*
X155116905Y-98903339D01*
X155085504Y-98868829D01*
X155077940Y-98859685D01*
X155053023Y-98826499D01*
X155053015Y-98826489D01*
X155049917Y-98822364D01*
X155001791Y-98776374D01*
X154995655Y-98770086D01*
X154954327Y-98724666D01*
X154954318Y-98724657D01*
X154950846Y-98720842D01*
X154943050Y-98714685D01*
X154914223Y-98691918D01*
X154905266Y-98684132D01*
X154875271Y-98655469D01*
X154871532Y-98651896D01*
X154853109Y-98639329D01*
X154816542Y-98614383D01*
X154809457Y-98609179D01*
X154761270Y-98571124D01*
X154761267Y-98571122D01*
X154757210Y-98567918D01*
X154716349Y-98545361D01*
X154706253Y-98539150D01*
X154671968Y-98515762D01*
X154671965Y-98515760D01*
X154667700Y-98512851D01*
X154663018Y-98510678D01*
X154663015Y-98510676D01*
X154607314Y-98484821D01*
X154599470Y-98480841D01*
X154545729Y-98451174D01*
X154545726Y-98451173D01*
X154541198Y-98448673D01*
X154536323Y-98446947D01*
X154536317Y-98446944D01*
X154497209Y-98433096D01*
X154486230Y-98428616D01*
X154443896Y-98408965D01*
X154438911Y-98407583D01*
X154438907Y-98407581D01*
X154379753Y-98391176D01*
X154371367Y-98388532D01*
X154313485Y-98368035D01*
X154313482Y-98368034D01*
X154308610Y-98366309D01*
X154262673Y-98358126D01*
X154251099Y-98355497D01*
X154211106Y-98344406D01*
X154211104Y-98344406D01*
X154206129Y-98343026D01*
X154200999Y-98342478D01*
X154200995Y-98342477D01*
X154166801Y-98338823D01*
X154101192Y-98311695D01*
X154060664Y-98253402D01*
X154058085Y-98182452D01*
X154094274Y-98121371D01*
X154139395Y-98094323D01*
X154282825Y-98045240D01*
X154289892Y-98043051D01*
X154910762Y-97870557D01*
X154917946Y-97868787D01*
X155547847Y-97733037D01*
X155555122Y-97731691D01*
X156191930Y-97633141D01*
X156199272Y-97632225D01*
X156840746Y-97571225D01*
X156848128Y-97570741D01*
X157492081Y-97547495D01*
X157499480Y-97547445D01*
X157810567Y-97554490D01*
G37*
%TD.AperFunction*%
%TD*%
M02*
